<svg xmlns="http://www.w3.org/2000/svg" xmlns:svg="http://www.w3.org/2000/svg" xmlns:xlink="http://www.w3.org/1999/xlink" id="svg12664" width="64" height="64" version="1.1" viewBox="0 0 64 64"><defs id="defs12666"><linearGradient id="linearGradient17818"><stop id="stop17820" offset="0" style="stop-color:#fff;stop-opacity:1"/><stop id="stop17822" offset="1" style="stop-color:#fff;stop-opacity:0"/></linearGradient><linearGradient id="linearGradient17537"><stop id="stop17539" offset="0" style="stop-color:#fff;stop-opacity:.6"/><stop id="stop17541" offset="1" style="stop-color:#fff;stop-opacity:0"/></linearGradient><linearGradient id="XMLID_18_" x1="35.979" x2="68.929" y1="15.023" y2="107.283" gradientTransform="translate(-134.625,-43.05)" gradientUnits="userSpaceOnUse"><stop id="stop32" offset="0" style="stop-color:#fff"/><stop id="stop34" offset=".219" style="stop-color:#f4f4f4"/><stop id="stop36" offset=".601" style="stop-color:#d8d8d8"/><stop id="stop38" offset="1" style="stop-color:#b3b3b3"/></linearGradient><radialGradient id="XMLID_22_" cx="126.5" cy="130.198" r="82.374" gradientTransform="translate(-194.625,-43.05)" gradientUnits="userSpaceOnUse"><stop id="stop72" offset="0" style="stop-color:#f3a848;stop-opacity:1"/><stop id="stop76" offset=".754" style="stop-color:#fc8723"/><stop id="stop78" offset="1" style="stop-color:#f4802a;stop-opacity:1"/></radialGradient><radialGradient id="radialGradient17499" cx="32" cy="50.163" r="20" fx="32" fy="50.163" gradientTransform="matrix(1.1933035e-7,-1.8499999,1.8000001,1.1610524e-7,-53.292869,95.19999)" gradientUnits="userSpaceOnUse" xlink:href="#XMLID_22_"/><radialGradient id="radialGradient17543" cx="29.625" cy="58.87" r="19" fx="29.625" fy="58.87" gradientTransform="matrix(2.5263158,-2.0415251e-7,1.8713982e-7,2.3157897,-44.842119,-126.33128)" gradientUnits="userSpaceOnUse" xlink:href="#linearGradient17537"/><linearGradient id="linearGradient17800" x1="16" x2="40" y1="2" y2="46" gradientTransform="translate(4,2)" gradientUnits="userSpaceOnUse" xlink:href="#XMLID_18_"/><linearGradient id="linearGradient18112" x1="13" x2="13" y1="8" y2="13" gradientTransform="translate(3,-2)" gradientUnits="userSpaceOnUse" xlink:href="#linearGradient17818"/><linearGradient id="linearGradient12467" x1="302.857" x2="302.857" y1="366.648" y2="609.505" gradientTransform="matrix(0.10585141,0,0,0.03294117,-5.3317992,18.922186)" gradientUnits="userSpaceOnUse" xlink:href="#linearGradient5048-585-73-1-5"/><linearGradient id="linearGradient5048-585-73-1-5"><stop style="stop-color:#000;stop-opacity:0" id="stop2667-99-4-6" offset="0"/><stop style="stop-color:#000;stop-opacity:1" id="stop2669-5-9-4" offset=".5"/><stop style="stop-color:#000;stop-opacity:0" id="stop2671-56-4-2" offset="1"/></linearGradient><radialGradient id="radialGradient12471" cx="605.714" cy="486.648" r="117.143" fx="605.714" fy="486.648" gradientTransform="matrix(0.04105444,0,0,0.03294117,31.406253,18.922186)" gradientUnits="userSpaceOnUse" xlink:href="#linearGradient5060-179-37-4-0"/><linearGradient id="linearGradient5060-179-37-4-0"><stop style="stop-color:#000;stop-opacity:1" id="stop2675-91-9-2" offset="0"/><stop style="stop-color:#000;stop-opacity:0" id="stop2677-09-0-9" offset="1"/></linearGradient><radialGradient id="radialGradient12475" cx="605.714" cy="486.648" r="117.143" fx="605.714" fy="486.648" gradientTransform="matrix(-0.04105444,0,0,0.03294117,31.111999,18.922186)" gradientUnits="userSpaceOnUse" xlink:href="#linearGradient5060-179-37-4-0"/><linearGradient id="linearGradient18305" x1="302.857" x2="302.857" y1="366.648" y2="609.505" gradientTransform="matrix(0.0705676,0,0,0.02196079,-0.72736841,24.281457)" gradientUnits="userSpaceOnUse" xlink:href="#linearGradient5048-585-73-1-5"/><radialGradient id="radialGradient18307" cx="605.714" cy="486.648" r="117.143" fx="605.714" fy="486.648" gradientTransform="matrix(0.02736963,0,0,0.02196079,38.653406,24.281457)" gradientUnits="userSpaceOnUse" xlink:href="#linearGradient5060-179-37-4-0"/><radialGradient id="radialGradient18309" cx="605.714" cy="486.648" r="117.143" fx="605.714" fy="486.648" gradientTransform="matrix(-0.02736963,0,0,0.02196079,23.235077,24.281457)" gradientUnits="userSpaceOnUse" xlink:href="#linearGradient5060-179-37-4-0"/><clipPath id="clipPath8180" clipPathUnits="userSpaceOnUse"><path style="opacity:.5;fill:#000;fill-opacity:1;fill-rule:evenodd;stroke:none;stroke-width:2;stroke-linecap:butt;stroke-linejoin:round;stroke-miterlimit:4;stroke-dasharray:none;stroke-opacity:1" id="path8182" d="m 5,34 c 2,0 2,-2 2,-2 L 7,9 C 7,9 7,6 10,6 l 17,0 c 3,0 3,-3 6,-3 l 21,0 c 3,0 3,3 3,3 l 0,26 c 0,0 0,2 -2,2 z" clip-path="none"/></clipPath><clipPath id="clipPath8195" clipPathUnits="userSpaceOnUse"><path id="path8197" d="m 49,34 c 2,0 2,-2 2,-2 l 0,-33 c 0,0 0,-3 -3,-3 l -18,0 c -3,0 -3,-3 -6,-3 L 7,-7 c -3,0 -3,3 -3,3 l 0,36 c 0,0 0,2 2,2 z" style="fill:url(#linearGradient8199);fill-opacity:1;fill-rule:evenodd;stroke:none;stroke-width:1px;stroke-linecap:butt;stroke-linejoin:miter;stroke-opacity:1"/></clipPath><linearGradient id="linearGradient8199" x1="16" x2="40" y1="2" y2="46" gradientTransform="translate(2,0)" gradientUnits="userSpaceOnUse" xlink:href="#XMLID_18_"/><linearGradient id="linearGradient8207" x1="24" x2="24" y1="-3" y2="1" gradientUnits="userSpaceOnUse" xlink:href="#linearGradient17537"/></defs><metadata id="metadata12669"/><g id="layer1" transform="translate(0,16)"><g id="g8172" transform="translate(2,1)"><path style="display:inline;overflow:visible;visibility:visible;opacity:.1;fill:url(#linearGradient12467);fill-opacity:1;fill-rule:nonzero;stroke:none;stroke-width:1;marker:none" id="rect4173-8-8" d="m 6.3703746,30.999999 49.7777754,0 0,7.999999 -49.7777754,0 z"/><path style="display:inline;overflow:visible;visibility:visible;opacity:.1;fill:url(#radialGradient12471);fill-opacity:1;fill-rule:nonzero;stroke:none;stroke-width:1;marker:none" id="path5058-9-0" d="m 56.148146,31.000279 c 0,0 0,7.999559 0,7.999559 2.1142,0.01507 5.111106,-1.792293 5.111106,-4.000293 0,-2.208 -2.359293,-3.999266 -5.111106,-3.999266 z"/><path style="display:inline;overflow:visible;visibility:visible;opacity:.1;fill:url(#radialGradient12475);fill-opacity:1;fill-rule:nonzero;stroke:none;stroke-width:1;marker:none" id="path5018-6-6" d="m 6.3701065,31.000279 c 0,0 0,7.999559 0,7.999559 C 4.2559066,39.014908 1.259,37.207545 1.259,34.999545 c 0,-2.208 2.3592933,-3.999266 5.1111065,-3.999266 z"/></g><g id="g8177" transform="matrix(1,0,0,1.1250001,2,-3.3750019)"><path style="display:inline;overflow:visible;visibility:visible;opacity:.3;fill:url(#linearGradient18305);fill-opacity:1;fill-rule:nonzero;stroke:none;stroke-width:1;marker:none" id="rect18299" d="m 6.7407466,32.333332 48.4072534,0 0,5.333333 -48.4072534,0 z"/><path id="path18301" d="m 55.148,32.333519 0,5.333039 c 1.409467,0.01 3.407404,-1.194862 3.407404,-2.666862 0,-1.472 -1.572862,-2.666177 -3.407404,-2.666177 z" style="display:inline;overflow:visible;visibility:visible;opacity:.3;fill:url(#radialGradient18307);fill-opacity:1;fill-rule:nonzero;stroke:none;stroke-width:1;marker:none"/><path id="path18303" d="m 6.7404833,32.333519 0,5.333039 c -1.4094664,0.01004 -3.407404,-1.194862 -3.407404,-2.666862 0,-1.472 1.5728621,-2.666177 3.407404,-2.666177 z" style="display:inline;overflow:visible;visibility:visible;opacity:.3;fill:url(#radialGradient18309);fill-opacity:1;fill-rule:nonzero;stroke:none;stroke-width:1;marker:none"/></g><path id="path17802" d="m 52,36 c 2,0 2,-2 2,-2 L 54,1 c 0,0 0,-3 -3,-3 l -19,0 c -3,0 -3,-3 -6,-3 L 9,-5 c -3,0 -3,3 -3,3 l 0,36 c 0,0 0,2 2,2 z" style="opacity:.4;fill:none;fill-opacity:1;fill-rule:evenodd;stroke:#000;stroke-width:2;stroke-linecap:butt;stroke-linejoin:miter;stroke-miterlimit:4;stroke-dasharray:none;stroke-opacity:1"/><path style="fill:url(#linearGradient17800);fill-opacity:1;fill-rule:evenodd;stroke:none;stroke-width:1px;stroke-linecap:butt;stroke-linejoin:miter;stroke-opacity:1" id="path17796" d="m 52,36 c 2,0 2,-2 2,-2 L 54,1 c 0,0 0,-3 -3,-3 l -19,0 c -3,0 -3,-3 -6,-3 L 9,-5 c -3,0 -3,3 -3,3 l 0,36 c 0,0 0,2 2,2 z"/><path id="rect17563" d="m 9,5 0,1 1,0 0,-1 -1,0 z m 3,0 0,1 1,0 0,-1 -1,0 z m 3,0 0,1 1,0 0,-1 -1,0 z m 3,0 0,1 1,0 0,-1 -1,0 z m 3,0 0,1 1,0 0,-1 -1,0 z m 3,0 0,1 1,0 0,-1 -1,0 z m 3,0 0,1 1,0 0,-1 -1,0 z m 3,0 0,1 1,0 0,-1 -1,0 z m 3,0 0,1 1,0 0,-1 -1,0 z m 3,0 0,1 1,0 0,-1 -1,0 z m 3,0 0,1 1,0 0,-1 -1,0 z m 3,0 0,1 1,0 0,-1 -1,0 z m 3,0 0,1 1,0 0,-1 -1,0 z m 3,0 0,1 1,0 0,-1 -1,0 z m 3,0 0,1 1,0 0,-1 -1,0 z M 9,8 9,9 10,9 10,8 9,8 Z m 3,0 0,1 1,0 0,-1 -1,0 z m 3,0 0,1 1,0 0,-1 -1,0 z m 3,0 0,1 1,0 0,-1 -1,0 z m 3,0 0,1 1,0 0,-1 -1,0 z m 3,0 0,1 1,0 0,-1 -1,0 z m 3,0 0,1 1,0 0,-1 -1,0 z m 3,0 0,1 1,0 0,-1 -1,0 z m 3,0 0,1 1,0 0,-1 -1,0 z m 3,0 0,1 1,0 0,-1 -1,0 z m 3,0 0,1 1,0 0,-1 -1,0 z m 3,0 0,1 1,0 0,-1 -1,0 z m 3,0 0,1 1,0 0,-1 -1,0 z m 3,0 0,1 1,0 0,-1 -1,0 z m 3,0 0,1 1,0 0,-1 -1,0 z m -42,3 0,1 1,0 0,-1 -1,0 z m 3,0 0,1 1,0 0,-1 -1,0 z m 3,0 0,1 1,0 0,-1 -1,0 z m 3,0 0,1 1,0 0,-1 -1,0 z m 3,0 0,1 1,0 0,-1 -1,0 z m 3,0 0,1 1,0 0,-1 -1,0 z m 3,0 0,1 1,0 0,-1 -1,0 z m 3,0 0,1 1,0 0,-1 -1,0 z m 3,0 0,1 1,0 0,-1 -1,0 z m 3,0 0,1 1,0 0,-1 -1,0 z m 3,0 0,1 1,0 0,-1 -1,0 z m 3,0 0,1 1,0 0,-1 -1,0 z m 3,0 0,1 1,0 0,-1 -1,0 z m 3,0 0,1 1,0 0,-1 -1,0 z m 3,0 0,1 1,0 0,-1 -1,0 z m -42,3 0,1 1,0 0,-1 -1,0 z m 3,0 0,1 1,0 0,-1 -1,0 z m 3,0 0,1 1,0 0,-1 -1,0 z m 3,0 0,1 1,0 0,-1 -1,0 z m 3,0 0,1 1,0 0,-1 -1,0 z m 3,0 0,1 1,0 0,-1 -1,0 z m 3,0 0,1 1,0 0,-1 -1,0 z m 3,0 0,1 1,0 0,-1 -1,0 z m 3,0 0,1 1,0 0,-1 -1,0 z m 3,0 0,1 1,0 0,-1 -1,0 z m 3,0 0,1 1,0 0,-1 -1,0 z m 3,0 0,1 1,0 0,-1 -1,0 z m 3,0 0,1 1,0 0,-1 -1,0 z m 3,0 0,1 1,0 0,-1 -1,0 z m 3,0 0,1 1,0 0,-1 -1,0 z m -42,3 0,1 1,0 0,-1 -1,0 z m 3,0 0,1 1,0 0,-1 -1,0 z m 3,0 0,1 1,0 0,-1 -1,0 z m 3,0 0,1 1,0 0,-1 -1,0 z m 3,0 0,1 1,0 0,-1 -1,0 z m 3,0 0,1 1,0 0,-1 -1,0 z m 3,0 0,1 1,0 0,-1 -1,0 z m 3,0 0,1 1,0 0,-1 -1,0 z m 3,0 0,1 1,0 0,-1 -1,0 z m 3,0 0,1 1,0 0,-1 -1,0 z m 3,0 0,1 1,0 0,-1 -1,0 z m 3,0 0,1 1,0 0,-1 -1,0 z m 3,0 0,1 1,0 0,-1 -1,0 z m 3,0 0,1 1,0 0,-1 -1,0 z m 3,0 0,1 1,0 0,-1 -1,0 z m -42,3 0,1 1,0 0,-1 -1,0 z m 3,0 0,1 1,0 0,-1 -1,0 z m 3,0 0,1 1,0 0,-1 -1,0 z m 3,0 0,1 1,0 0,-1 -1,0 z m 3,0 0,1 1,0 0,-1 -1,0 z m 3,0 0,1 1,0 0,-1 -1,0 z m 3,0 0,1 1,0 0,-1 -1,0 z m 3,0 0,1 1,0 0,-1 -1,0 z m 3,0 0,1 1,0 0,-1 -1,0 z m 3,0 0,1 1,0 0,-1 -1,0 z m 3,0 0,1 1,0 0,-1 -1,0 z m 3,0 0,1 1,0 0,-1 -1,0 z m 3,0 0,1 1,0 0,-1 -1,0 z m 3,0 0,1 1,0 0,-1 -1,0 z m 3,0 0,1 1,0 0,-1 -1,0 z m -42,3 0,1 1,0 0,-1 -1,0 z m 3,0 0,1 1,0 0,-1 -1,0 z m 3,0 0,1 1,0 0,-1 -1,0 z m 3,0 0,1 1,0 0,-1 -1,0 z m 3,0 0,1 1,0 0,-1 -1,0 z m 3,0 0,1 1,0 0,-1 -1,0 z m 3,0 0,1 1,0 0,-1 -1,0 z m 3,0 0,1 1,0 0,-1 -1,0 z m 3,0 0,1 1,0 0,-1 -1,0 z m 3,0 0,1 1,0 0,-1 -1,0 z m 3,0 0,1 1,0 0,-1 -1,0 z m 3,0 0,1 1,0 0,-1 -1,0 z m 3,0 0,1 1,0 0,-1 -1,0 z m 3,0 0,1 1,0 0,-1 -1,0 z m 3,0 0,1 1,0 0,-1 -1,0 z m -42,3 0,1 1,0 0,-1 -1,0 z m 3,0 0,1 1,0 0,-1 -1,0 z m 3,0 0,1 1,0 0,-1 -1,0 z m 3,0 0,1 1,0 0,-1 -1,0 z m 3,0 0,1 1,0 0,-1 -1,0 z m 3,0 0,1 1,0 0,-1 -1,0 z m 3,0 0,1 1,0 0,-1 -1,0 z m 3,0 0,1 1,0 0,-1 -1,0 z m 3,0 0,1 1,0 0,-1 -1,0 z m 3,0 0,1 1,0 0,-1 -1,0 z m 3,0 0,1 1,0 0,-1 -1,0 z m 3,0 0,1 1,0 0,-1 -1,0 z m 3,0 0,1 1,0 0,-1 -1,0 z m 3,0 0,1 1,0 0,-1 -1,0 z m 3,0 0,1 1,0 0,-1 -1,0 z m -42,3 0,1 1,0 0,-1 -1,0 z m 3,0 0,1 1,0 0,-1 -1,0 z m 3,0 0,1 1,0 0,-1 -1,0 z m 3,0 0,1 1,0 0,-1 -1,0 z m 3,0 0,1 1,0 0,-1 -1,0 z m 3,0 0,1 1,0 0,-1 -1,0 z m 3,0 0,1 1,0 0,-1 -1,0 z m 3,0 0,1 1,0 0,-1 -1,0 z m 3,0 0,1 1,0 0,-1 -1,0 z m 3,0 0,1 1,0 0,-1 -1,0 z m 3,0 0,1 1,0 0,-1 -1,0 z m 3,0 0,1 1,0 0,-1 -1,0 z m 3,0 0,1 1,0 0,-1 -1,0 z m 3,0 0,1 1,0 0,-1 -1,0 z m 3,0 0,1 1,0 0,-1 -1,0 z" style="color:#000;clip-rule:nonzero;display:inline;overflow:visible;visibility:visible;opacity:.2;isolation:auto;mix-blend-mode:normal;color-interpolation:sRGB;color-interpolation-filters:linearRGB;solid-color:#000;solid-opacity:1;fill:#000;fill-opacity:1;fill-rule:evenodd;stroke:none;stroke-width:2;stroke-linecap:round;stroke-linejoin:round;stroke-miterlimit:4;stroke-dasharray:none;stroke-dashoffset:0;stroke-opacity:1;color-rendering:auto;image-rendering:auto;shape-rendering:auto;text-rendering:auto;enable-background:accumulate"/><path id="rect17804" d="m 9.96875,-4 14.0625,0 C 24.567937,-4 25,-3.5679375 25,-3.03125 l 0,0.0625 C 25,-2.4320625 24.567937,-2 24.03125,-2 L 9.96875,-2 C 9.4320625,-2 9,-2.4320625 9,-2.96875 l 0,-0.0625 C 9,-3.5679375 9.4320625,-4 9.96875,-4 Z" style="color:#000;clip-rule:nonzero;display:inline;overflow:visible;visibility:visible;opacity:1;isolation:auto;mix-blend-mode:normal;color-interpolation:sRGB;color-interpolation-filters:linearRGB;solid-color:#000;solid-opacity:1;fill:#f79b58;fill-opacity:1;fill-rule:evenodd;stroke:none;stroke-width:2;stroke-linecap:round;stroke-linejoin:round;stroke-miterlimit:4;stroke-dasharray:none;stroke-dashoffset:0;stroke-opacity:1;color-rendering:auto;image-rendering:auto;shape-rendering:auto;text-rendering:auto;enable-background:accumulate"/><path id="path17464" d="M 34,4.5 C 32.333333,4.5 31.396484,5.396484 30.646484,6.146484 29.896484,6.896484 29.333333,7.5 28,7.5 l -17,0 C 9.3333333,7.5 8.3623629,8.408087 7.9277344,9.277344 7.4931059,10.146601 7.5,11 7.5,11 l 0,23 c 0,0 -0.00689,0.396601 -0.1972656,0.777344 C 7.1123629,35.158087 6.8333333,35.5 6,35.5 l 0,0.5 0,0.5 50,0 c 1.166667,0 1.887637,-0.658087 2.197266,-1.277344 C 58.506894,34.603399 58.5,34 58.5,34 l 0,-26 C 58.5,8 58.5069,7.146601 58.072266,6.277344 57.637637,5.408087 56.666667,4.5 55,4.5 Z" style="opacity:.9;fill:url(#radialGradient17499);fill-opacity:1;fill-rule:evenodd;stroke:none;stroke-width:1px;stroke-linecap:butt;stroke-linejoin:miter;stroke-opacity:1"/><path id="path17530" d="M 34,5 C 31,5 31,8 28,8 L 11,8 C 8,8 8,11 8,11 L 8,24.78125 C 21,19 46.535821,17.085096 58,18.476562 L 58,8 c 0,0 0,-3 -3,-3 z" style="opacity:.8;fill:url(#radialGradient17543);fill-opacity:1;fill-rule:evenodd;stroke:none;stroke-width:1px;stroke-linecap:butt;stroke-linejoin:miter;stroke-opacity:1"/><path id="path17858" d="m 54.5,3 0,30.5 c 0.125,3.25 -3.5,3 -3.5,3" style="opacity:.05;fill:none;fill-rule:evenodd;stroke:#000;stroke-width:1px;stroke-linecap:butt;stroke-linejoin:miter;stroke-opacity:1"/><path style="opacity:.3;fill:none;fill-opacity:1;fill-rule:evenodd;stroke:#000;stroke-width:1px;stroke-linecap:butt;stroke-linejoin:round;stroke-opacity:1" id="path18218" d="M 34,4.5 C 32.333333,4.5 31.396484,5.396484 30.646484,6.146484 29.896484,6.896484 29.333333,7.5 28,7.5 l -17,0 C 9.3333333,7.5 8.3623629,8.408087 7.9277344,9.277344 7.4931059,10.146601 7.5,11 7.5,11 l 0,23 c 0,0 -0.00689,0.396601 -0.1972656,0.777344 C 7.1123629,35.158087 6.8333333,35.5 6,35.5 l 0,0.5 0,0.5 50,0 c 1.166667,0 1.887637,-0.658087 2.197266,-1.277344 C 58.506894,34.603399 58.5,34 58.5,34 l 0,-26 C 58.5,8 58.5069,7.146601 58.072266,6.277344 57.637637,5.408087 56.666667,4.5 55,4.5 Z"/><path id="path17808" d="m 5,34 c 2,0 2,-2 2,-2 L 7,9 C 7,9 7,6 10,6 l 17,0 c 3,0 3,-3 6,-3 l 21,0 c 3,0 3,3 3,3 L 57,18.831845 57,32 c 0,0 0,2 -2,2 z" clip-path="url(#clipPath8180)" transform="translate(1,2)" style="opacity:.5;fill:none;fill-opacity:1;fill-rule:evenodd;stroke:url(#linearGradient18112);stroke-width:2;stroke-linecap:butt;stroke-linejoin:round;stroke-miterlimit:4;stroke-dasharray:none;stroke-opacity:1"/><path id="path17826" d="m 7.9999998,34.666665 46.9999982,0" style="opacity:.1;fill:none;fill-rule:evenodd;stroke:#fff;stroke-width:1px;stroke-linecap:butt;stroke-linejoin:miter;stroke-opacity:1"/><path style="opacity:.4;fill:none;fill-opacity:1;fill-rule:evenodd;stroke:url(#linearGradient8207);stroke-width:2;stroke-linecap:butt;stroke-linejoin:miter;stroke-miterlimit:4;stroke-dasharray:none;stroke-opacity:1" id="path8191" d="m 50,34 c 2,0 2,-2 2,-2 l 0,-33 c 0,0 0,-3 -3,-3 l -19,0 c -3,0 -3,-3 -6,-3 L 7,-7 c -3,0 -3,3 -3,3 l 0,36 c 0,0 0,2 2,2 z" clip-path="url(#clipPath8195)" transform="translate(2,2)"/></g></svg>