<svg xmlns="http://www.w3.org/2000/svg" xmlns:svg="http://www.w3.org/2000/svg" xmlns:xlink="http://www.w3.org/1999/xlink" id="svg12664" width="16" height="16" version="1.1" viewBox="0 0 16 16"><defs id="defs12666"><linearGradient id="linearGradient2867-449-88-871-390-598-476-591-434-148-57-177-3-8-9"><stop style="stop-color:#ff9e23;stop-opacity:1" id="stop3750-8-9-6" offset="0"/><stop style="stop-color:#ff7000;stop-opacity:1" id="stop3756-9-3-0" offset="1"/></linearGradient><linearGradient id="linearGradient3078" x1="71.204" x2="71.204" y1="6.238" y2="44.341" gradientTransform="matrix(0.35135136,0,0,0.35135137,-17.203671,31.090699)" gradientUnits="userSpaceOnUse" xlink:href="#linearGradient4011"/><linearGradient id="linearGradient4011"><stop style="stop-color:#fff;stop-opacity:1" id="stop4013" offset="0"/><stop style="stop-color:#fff;stop-opacity:.23529412" id="stop4015" offset=".508"/><stop style="stop-color:#fff;stop-opacity:.15686275" id="stop4017" offset=".835"/><stop style="stop-color:#fff;stop-opacity:.39215687" id="stop4019" offset="1"/></linearGradient><radialGradient id="radialGradient3100-5" cx="8.424" cy="8.45" r="20" fx="8.424" fy="8.45" gradientTransform="matrix(2.541153e-8,0.57142884,-0.71428607,2.3280293e-8,14.035582,29.650722)" gradientUnits="userSpaceOnUse" xlink:href="#linearGradient2867-449-88-871-390-598-476-591-434-148-57-177-3-8-9"/></defs><metadata id="metadata12669"/><g id="layer1" transform="translate(0,-32)"><path id="path2555" d="m 8.000001,32.5 c -4.138241,0 -7.50000103,3.361759 -7.50000103,7.5 0,4.138242 3.36176003,7.500002 7.50000103,7.500001 4.13824,0 7.500003,-3.361759 7.499999,-7.500001 0,-4.138241 -3.361759,-7.5 -7.499999,-7.5 z" style="color:#000;display:inline;overflow:visible;visibility:visible;fill:url(#radialGradient3100-5);fill-opacity:1;fill-rule:nonzero;stroke:none;stroke-width:1;marker:none;enable-background:accumulate"/><path id="path2555-6" d="m 8.000001,32.5 c -4.138242,0 -7.50000103,3.361758 -7.50000103,7.5 0,4.138242 3.36175903,7.500002 7.50000103,7.5 4.13824,0 7.500003,-3.361758 7.499999,-7.5 0,-4.138242 -3.361759,-7.5 -7.499999,-7.5 z" style="color:#000;display:inline;overflow:visible;visibility:visible;opacity:.5;fill:#000;fill-opacity:0;fill-rule:nonzero;stroke:#982d00;stroke-width:.99999994;stroke-linecap:round;stroke-linejoin:round;stroke-miterlimit:4;stroke-dasharray:none;stroke-dashoffset:0;stroke-opacity:1;marker:none;enable-background:accumulate"/><path id="path8655-6" d="M 14.5,39.999769 C 14.5,43.589735 11.589636,46.5 8.0000824,46.5 4.4101993,46.5 1.5,43.589702 1.5,39.999769 1.5,36.409969 4.4101993,33.5 8.0000824,33.5 11.589636,33.5 14.5,36.409969 14.5,39.999769 l 0,0 z" style="color:#000;display:inline;overflow:visible;visibility:visible;opacity:.6;fill:none;stroke:url(#linearGradient3078);stroke-width:.99999994;stroke-linecap:round;stroke-linejoin:round;stroke-miterlimit:4;stroke-dasharray:none;stroke-dashoffset:0;stroke-opacity:1;marker:none;enable-background:accumulate"/><path style="fill:#000;fill-opacity:1;fill-rule:evenodd;stroke:none;stroke-width:1px;stroke-linecap:butt;stroke-linejoin:miter;stroke-opacity:1;opacity:.15" id="path8490" d="m 6.990234,35.496094 c -0.1297601,0.0036 -0.2530304,0.05754 -0.34375,0.15039 l -2.5,2.5 c -0.1951847,0.195265 -0.1951847,0.511767 0,0.707032 l 2.5,2.5 c 0.4712555,0.490773 1.197805,-0.235777 0.707032,-0.707032 L 5.707031,39 12,39 12,38 5.707031,38 7.353516,36.353516 C 7.678786,36.035512 7.444955,35.483622 6.990234,35.496094 Z M 9,40.494141 c -0.4494022,9.2e-5 -0.6705866,0.54684 -0.347656,0.859375 L 10.298828,43 4,43 l 0,1 6.298828,0 -1.646484,1.646484 c -0.4908068,0.471254 0.2357759,1.197838 0.707031,0.707032 l 2.5,-2.5 c 0.195185,-0.195265 0.195185,-0.511767 0,-0.707032 l -2.5,-2.5 C 9.2651676,40.549115 9.1354831,40.494141 9,40.494141 Z"/><path id="path18454" d="m 6.990234,34.496094 c -0.1297601,0.0036 -0.2530304,0.05754 -0.34375,0.15039 l -2.5,2.5 c -0.1951847,0.195265 -0.1951847,0.511767 0,0.707032 l 2.5,2.5 c 0.4712555,0.490773 1.197805,-0.235777 0.707032,-0.707032 L 5.707031,38 12,38 12,37 5.707031,37 7.353516,35.353516 c 0.32527,-0.318004 0.091439,-0.869894 -0.363282,-0.857422 z M 9,39.494141 c -0.4494022,9.2e-5 -0.6705866,0.54684 -0.347656,0.859375 L 10.298828,42 4,42 l 0,1 6.298828,0 -1.646484,1.646484 c -0.4908068,0.471254 0.2357759,1.197838 0.707031,0.707032 l 2.5,-2.5 c 0.195185,-0.195265 0.195185,-0.511767 0,-0.707032 l -2.5,-2.5 C 9.2651676,39.549115 9.1354831,39.494141 9,39.494141 Z" style="fill:#fff;fill-opacity:1;fill-rule:evenodd;stroke:none;stroke-width:1px;stroke-linecap:butt;stroke-linejoin:miter;stroke-opacity:1"/></g></svg>