<svg xmlns="http://www.w3.org/2000/svg" xmlns:osb="http://www.openswatchbook.org/uri/2009/osb" xmlns:svg="http://www.w3.org/2000/svg" xmlns:xlink="http://www.w3.org/1999/xlink" id="svg12664" width="48" height="48" version="1.1" viewBox="0 0 48 48"><defs id="defs12666"><linearGradient id="linearGradient10165"><stop style="stop-color:#8e8f8f;stop-opacity:1" id="stop10167" offset="0"/><stop style="stop-color:#babdb6;stop-opacity:1" id="stop10169" offset="1"/></linearGradient><linearGradient id="linearGradient17818"><stop style="stop-color:#fff;stop-opacity:1" id="stop17820" offset="0"/><stop style="stop-color:#fff;stop-opacity:0" id="stop17822" offset="1"/></linearGradient><linearGradient id="linearGradient17537"><stop style="stop-color:#fff;stop-opacity:.6" id="stop17539" offset="0"/><stop style="stop-color:#fff;stop-opacity:0" id="stop17541" offset="1"/></linearGradient><linearGradient id="XMLID_14_" x1="53.916" x2="55.82" y1="91.115" y2="110.67" gradientTransform="translate(-134.625,-43.05)" gradientUnits="userSpaceOnUse"><stop style="stop-color:#999" id="stop4" offset="0"/><stop style="stop-color:#4d4d4d" id="stop6" offset="1"/></linearGradient><linearGradient id="XMLID_15_" x1="56.851" x2="58.826" y1="91.508" y2="111.784" gradientTransform="translate(-134.625,-43.05)" gradientUnits="userSpaceOnUse"><stop style="stop-color:#999" id="stop11" offset="0"/><stop style="stop-color:#4d4d4d" id="stop13" offset="1"/></linearGradient><linearGradient id="XMLID_16_" x1="57.941" x2="60.232" y1="89.601" y2="113.126" gradientTransform="translate(-134.625,-43.05)" gradientUnits="userSpaceOnUse"><stop style="stop-color:#999" id="stop18" offset="0"/><stop style="stop-color:#4d4d4d" id="stop20" offset="1"/></linearGradient><linearGradient id="XMLID_17_" x1="47.312" x2="58.863" y1="10.758" y2="110.298" gradientTransform="translate(-134.625,-43.05)" gradientUnits="userSpaceOnUse"><stop style="stop-color:#999" id="stop25" offset="0"/><stop style="stop-color:#4d4d4d" id="stop27" offset="1"/></linearGradient><linearGradient id="XMLID_18_" x1="35.979" x2="68.929" y1="15.023" y2="107.283" gradientTransform="translate(-134.625,-43.05)" gradientUnits="userSpaceOnUse"><stop style="stop-color:#fff" id="stop32" offset="0"/><stop style="stop-color:#f4f4f4" id="stop34" offset=".219"/><stop style="stop-color:#d8d8d8" id="stop36" offset=".601"/><stop style="stop-color:#b3b3b3" id="stop38" offset="1"/></linearGradient><linearGradient id="XMLID_19_" x1="49.922" x2="58.37" y1="23.245" y2="104.019" gradientTransform="translate(-134.625,-43.05)" gradientUnits="userSpaceOnUse"><stop style="stop-color:#d9d9d9" id="stop45" offset="0"/><stop style="stop-color:#cecece" id="stop47" offset=".375"/><stop style="stop-color:#b3b3b3" id="stop49" offset="1"/></linearGradient><linearGradient id="XMLID_20_" x1="54.991" x2="63.21" y1="39.262" y2="110.089" gradientTransform="translate(-134.625,-43.05)" gradientUnits="userSpaceOnUse"><stop style="stop-color:#999" id="stop54" offset="0"/><stop style="stop-color:#4d4d4d" id="stop56" offset="1"/></linearGradient><radialGradient id="XMLID_21_" cx="79.615" cy="116.734" r="88.042" gradientTransform="translate(-134.625,-43.05)" gradientUnits="userSpaceOnUse"><stop style="stop-color:#ffdd70" id="stop61" offset="0"/><stop style="stop-color:#ffab43" id="stop63" offset=".422"/><stop style="stop-color:#ff841f" id="stop65" offset=".802"/><stop style="stop-color:#ff7512" id="stop67" offset="1"/></radialGradient><radialGradient id="XMLID_22_" cx="126.5" cy="130.198" r="82.374" gradientTransform="translate(-194.625,-43.05)" gradientUnits="userSpaceOnUse"><stop style="stop-color:#f3a848;stop-opacity:1" id="stop72" offset="0"/><stop style="stop-color:#fc8723" id="stop76" offset=".754"/><stop style="stop-color:#f4802a;stop-opacity:1" id="stop78" offset="1"/></radialGradient><linearGradient id="XMLID_23_" x1="132.506" x2="40.76" y1="35.301" y2="115.453" gradientTransform="translate(-134.625,-43.05)" gradientUnits="userSpaceOnUse"><stop style="stop-color:#ffdd70" id="stop83" offset="0"/><stop style="stop-color:#ffb047" id="stop85" offset=".383"/><stop style="stop-color:#ff8521" id="stop87" offset=".791"/><stop style="stop-color:#ff7512" id="stop89" offset="1"/></linearGradient><radialGradient id="XMLID_24_" cx="87.547" cy="108.134" r="112.454" gradientTransform="translate(-134.625,-43.05)" gradientUnits="userSpaceOnUse"><stop style="stop-color:#fff3cc" id="stop94" offset="0"/><stop style="stop-color:#ffdbaa" id="stop96" offset=".191"/><stop style="stop-color:#ffb06c" id="stop98" offset=".574"/><stop style="stop-color:#ff9445" id="stop100" offset=".854"/><stop style="stop-color:#ff8a36" id="stop102" offset="1"/></radialGradient><linearGradient id="XMLID_25_" x1="59.637" x2="65.511" y1="28.64" y2="120.586" gradientTransform="translate(-134.625,-43.05)" gradientUnits="userSpaceOnUse"><stop style="stop-color:#ebdba6" id="stop107" offset="0"/><stop style="stop-color:#ff7512" id="stop109" offset="1"/></linearGradient><linearGradient id="XMLID_26_" x1="103.954" x2="108.03" y1="11.405" y2="106.01" gradientTransform="translate(-134.625,-43.05)" gradientUnits="userSpaceOnUse"><stop style="stop-color:#999" id="stop114" offset="0"/><stop style="stop-color:#4d4d4d" id="stop116" offset="1"/></linearGradient><radialGradient id="radialGradient17499" cx="32" cy="49.448" r="20" fx="32" fy="49.448" gradientTransform="matrix(-4.0167788e-8,-1.5000001,1.4,-3.7489927e-8,-36.227777,85.000004)" gradientUnits="userSpaceOnUse" xlink:href="#XMLID_22_"/><radialGradient id="radialGradient17543" cx="27.646" cy="62.325" r="19" fx="27.646" fy="62.325" gradientTransform="matrix(2.5263158,-2.0415251e-7,1.8713982e-7,2.3157897,-47.842119,-125.33128)" gradientUnits="userSpaceOnUse" xlink:href="#linearGradient17537"/><clipPath id="clipPath17549" clipPathUnits="userSpaceOnUse"><path style="fill:url(#radialGradient17553);fill-opacity:1;fill-rule:evenodd;stroke:none;stroke-width:1px;stroke-linecap:butt;stroke-linejoin:miter;stroke-opacity:1" id="path17551" d="M 2,36 4,34 4,20 c 0,0 0,-2 2,-2 l 14,0 c 3,0 3,-3 6,-3 l 14,0 c 2,0 2,2 2,2 l 0,17 c 0,0 0,2 -2,2 z"/></clipPath><radialGradient id="radialGradient17553" cx="32" cy="55.341" r="20" fx="32" fy="55.341" gradientTransform="matrix(2.2,8.9007e-8,-8.091545e-8,1.9999999,-38.399996,-66.682539)" gradientUnits="userSpaceOnUse" xlink:href="#XMLID_21_"/><linearGradient id="linearGradient17800" x1="16" x2="40" y1="2" y2="46" gradientTransform="translate(1,3)" gradientUnits="userSpaceOnUse" xlink:href="#XMLID_18_"/><clipPath id="clipPath17812" clipPathUnits="userSpaceOnUse"><path id="path17814" d="m 2,36 c 2,0 2,-2 2,-2 L 4,21 c 0,0 0,-3 3,-3 l 13,0 c 3,0 3,-3 6,-3 l 13,0 c 3,0 3,3 3,3 l 0,16 c 0,0 0,2 -2,2 z" style="fill:url(#radialGradient17816);fill-opacity:1;fill-rule:evenodd;stroke:none;stroke-width:1px;stroke-linecap:butt;stroke-linejoin:miter;stroke-opacity:1"/></clipPath><radialGradient id="radialGradient17816" cx="32" cy="55.341" r="20" fx="32" fy="55.341" gradientTransform="matrix(2.2,8.9007e-8,-8.091545e-8,1.9999999,-38.399996,-66.682539)" gradientUnits="userSpaceOnUse" xlink:href="#XMLID_21_"/><clipPath id="clipPath18098" clipPathUnits="userSpaceOnUse"><path style="fill:url(#linearGradient18102);fill-opacity:1;fill-rule:evenodd;stroke:none;stroke-width:1px;stroke-linecap:butt;stroke-linejoin:miter;stroke-opacity:1" id="path18100" d="m 37,36 c 2,0 2,-2 2,-2 l 0,-21 c 0,0 0,-3 -3,-3 L 24,10 C 21,10 21,7 18,7 L 5,7 C 2,7 2,10 2,10 l 0,24 c 0,0 0,2 2,2 z"/></clipPath><linearGradient id="linearGradient18102" x1="16" x2="40" y1="2" y2="46" gradientTransform="translate(0,2)" gradientUnits="userSpaceOnUse" xlink:href="#XMLID_18_"/><linearGradient id="linearGradient18110" x1="20" x2="20" y1="7" y2="29" gradientUnits="userSpaceOnUse" xlink:href="#linearGradient17818"/><linearGradient id="linearGradient18112" x1="14" x2="14" y1="18" y2="21" gradientUnits="userSpaceOnUse" xlink:href="#linearGradient17818"/><linearGradient id="linearGradient12467" x1="302.857" x2="302.857" y1="366.648" y2="609.505" gradientTransform="matrix(0.07938856,0,0,0.02470588,-4.69329,23.94164)" gradientUnits="userSpaceOnUse" xlink:href="#linearGradient5048-585-73-1-5"/><linearGradient id="linearGradient5048-585-73-1-5"><stop id="stop2667-99-4-6" offset="0" style="stop-color:#000;stop-opacity:0"/><stop id="stop2669-5-9-4" offset=".5" style="stop-color:#000;stop-opacity:1"/><stop id="stop2671-56-4-2" offset="1" style="stop-color:#000;stop-opacity:0"/></linearGradient><radialGradient id="radialGradient12471" cx="605.714" cy="486.648" r="117.143" fx="605.714" fy="486.648" gradientTransform="matrix(0.03079083,0,0,0.02470588,24.61025,23.94164)" gradientUnits="userSpaceOnUse" xlink:href="#linearGradient5060-179-37-4-0"/><linearGradient id="linearGradient5060-179-37-4-0"><stop id="stop2675-91-9-2" offset="0" style="stop-color:#000;stop-opacity:1"/><stop id="stop2677-09-0-9" offset="1" style="stop-color:#000;stop-opacity:0"/></linearGradient><radialGradient id="radialGradient12475" cx="605.714" cy="486.648" r="117.143" fx="605.714" fy="486.648" gradientTransform="matrix(-0.03079083,0,0,0.02470588,23.38975,23.94164)" gradientUnits="userSpaceOnUse" xlink:href="#linearGradient5060-179-37-4-0"/><linearGradient id="linearGradient18305" x1="302.857" x2="302.857" y1="366.648" y2="609.505" gradientTransform="matrix(0.0529257,0,0,0.01647059,-1.7955263,27.961094)" gradientUnits="userSpaceOnUse" xlink:href="#linearGradient5048-585-73-1-5"/><radialGradient id="radialGradient18307" cx="605.714" cy="486.648" r="117.143" fx="605.714" fy="486.648" gradientTransform="matrix(0.02052722,0,0,0.01647059,28.740165,27.961094)" gradientUnits="userSpaceOnUse" xlink:href="#linearGradient5060-179-37-4-0"/><radialGradient id="radialGradient18309" cx="605.714" cy="486.648" r="117.143" fx="605.714" fy="486.648" gradientTransform="matrix(-0.02052722,0,0,0.01647059,16.926499,27.961094)" gradientUnits="userSpaceOnUse" xlink:href="#linearGradient5060-179-37-4-0"/><linearGradient id="linearGradient5606" osb:paint="solid"><stop style="stop-color:#000;stop-opacity:1" id="stop5608" offset="0"/></linearGradient><linearGradient id="linearGradient5877" x1="1.874" x2="13.18" y1="108.693" y2="108.693" gradientTransform="matrix(3.4493395,0,0,0.2737065,-5.46382,9.249987)" gradientUnits="userSpaceOnUse" xlink:href="#linearGradient158"/><linearGradient id="linearGradient158"><stop style="stop-color:#686868;stop-opacity:0" id="stop159" offset="0"/><stop style="stop-color:#5b5b5b;stop-opacity:1" id="stop162" offset=".2"/><stop style="stop-color:#737373;stop-opacity:1" id="stop163" offset=".781"/><stop style="stop-color:#686868;stop-opacity:0" id="stop160" offset="1"/></linearGradient><linearGradient id="linearGradient272"><stop style="stop-color:#474747;stop-opacity:0" id="stop273" offset="0"/><stop style="stop-color:#000;stop-opacity:1" id="stop275" offset=".1"/><stop style="stop-color:#000;stop-opacity:1" id="stop276" offset=".9"/><stop style="stop-color:#000;stop-opacity:0" id="stop274" offset="1"/></linearGradient><linearGradient id="linearGradient5883" x1="2.164" x2="12.891" y1="112.346" y2="112.346" gradientTransform="matrix(3.4493395,0,0,0.09123576,-5.46382,30.750007)" gradientUnits="userSpaceOnUse" xlink:href="#linearGradient178"/><linearGradient id="linearGradient178"><stop style="stop-color:#fff;stop-opacity:0" id="stop179" offset="0"/><stop style="stop-color:#fff;stop-opacity:.70658684" id="stop180" offset=".108"/><stop style="stop-color:#fff;stop-opacity:.77327937" id="stop181" offset=".921"/><stop style="stop-color:#fff;stop-opacity:0" id="stop182" offset="1"/></linearGradient><linearGradient id="linearGradient204"><stop style="stop-color:#7a7a7a;stop-opacity:1" id="stop205" offset="0"/><stop style="stop-color:#c5c5c5;stop-opacity:1" id="stop207" offset=".198"/><stop style="stop-color:#626262;stop-opacity:1" id="stop208" offset=".599"/><stop style="stop-color:#888;stop-opacity:1" id="stop206" offset="1"/></linearGradient><linearGradient id="linearGradient10171" x1="14" x2="14" y1="44" y2="39" gradientUnits="userSpaceOnUse" xlink:href="#linearGradient10165"/><linearGradient id="linearGradient5881" x1=".807" x2="4.308" y1="352.509" y2="352.509" gradientTransform="matrix(10.282689,0,0,0.228621,-6.294017,-33.590926)" gradientUnits="userSpaceOnUse" xlink:href="#linearGradient272"/><linearGradient id="linearGradient10221" x1=".904" x2="2.071" y1="343.761" y2="343.761" gradientTransform="matrix(10.282689,0,0,0.228621,-0.294017,-31.590926)" gradientUnits="userSpaceOnUse" xlink:href="#linearGradient272"/><linearGradient id="linearGradient10223" x1="14" x2="14" y1="44" y2="39" gradientUnits="userSpaceOnUse" xlink:href="#linearGradient10165"/></defs><metadata id="metadata12669"/><g id="layer1"><g id="g10202" transform="translate(0,2)"><rect id="rect250" width="35" height="1" x="3" y="43" style="display:block;overflow:visible;visibility:visible;opacity:.2;fill:url(#linearGradient5881);fill-opacity:1;fill-rule:nonzero;stroke:none;stroke-width:1;marker:none;enable-background:new"/><rect id="rect69" width="39.17" height="3" x=".83" y="40" style="display:block;overflow:visible;visibility:visible;fill:url(#linearGradient5877);fill-opacity:1;fill-rule:nonzero;stroke:none;stroke-width:1;marker:none"/><rect id="rect176" width="39.17" height="1" x=".83" y="41" style="display:block;overflow:visible;visibility:visible;opacity:.8;fill:url(#linearGradient5883);fill-opacity:1;fill-rule:nonzero;stroke:none;stroke-width:1;marker:none"/><rect style="color:#000;clip-rule:nonzero;display:inline;overflow:visible;visibility:visible;opacity:.6;isolation:auto;mix-blend-mode:normal;color-interpolation:sRGB;color-interpolation-filters:linearRGB;solid-color:#000;solid-opacity:1;fill:none;fill-opacity:.99215686;fill-rule:evenodd;stroke:#000;stroke-width:2;stroke-linecap:round;stroke-linejoin:round;stroke-miterlimit:4;stroke-dasharray:none;stroke-dashoffset:0;stroke-opacity:1;color-rendering:auto;image-rendering:auto;shape-rendering:auto;text-rendering:auto;enable-background:accumulate" id="rect10157" width="10" height="5" x="10" y="39" rx="0" ry="0"/><rect id="rect10155" width="10" height="5" x="10" y="39" rx="0" ry="0" style="color:#000;clip-rule:nonzero;display:inline;overflow:visible;visibility:visible;opacity:1;isolation:auto;mix-blend-mode:normal;color-interpolation:sRGB;color-interpolation-filters:linearRGB;solid-color:#000;solid-opacity:1;fill:url(#linearGradient10223);fill-opacity:1;fill-rule:evenodd;stroke:none;stroke-width:4;stroke-linecap:round;stroke-linejoin:miter;stroke-miterlimit:4;stroke-dasharray:none;stroke-dashoffset:0;stroke-opacity:1;color-rendering:auto;image-rendering:auto;shape-rendering:auto;text-rendering:auto;enable-background:accumulate"/><path id="path10159" d="m 10,40.5 10,0" style="opacity:.8;fill:none;fill-rule:evenodd;stroke:#fff;stroke-width:1px;stroke-linecap:butt;stroke-linejoin:miter;stroke-opacity:1"/><rect id="rect10161" width="1" height="5" x="10" y="39" style="color:#000;clip-rule:nonzero;display:inline;overflow:visible;visibility:visible;opacity:.4;isolation:auto;mix-blend-mode:normal;color-interpolation:sRGB;color-interpolation-filters:linearRGB;solid-color:#000;solid-opacity:1;fill:#fff;fill-opacity:1;fill-rule:evenodd;stroke:none;stroke-width:2;stroke-linecap:round;stroke-linejoin:miter;stroke-miterlimit:4;stroke-dasharray:none;stroke-dashoffset:0;stroke-opacity:1;color-rendering:auto;image-rendering:auto;shape-rendering:auto;text-rendering:auto;enable-background:accumulate"/><rect style="color:#000;clip-rule:nonzero;display:inline;overflow:visible;visibility:visible;opacity:.4;isolation:auto;mix-blend-mode:normal;color-interpolation:sRGB;color-interpolation-filters:linearRGB;solid-color:#000;solid-opacity:1;fill:#fff;fill-opacity:1;fill-rule:evenodd;stroke:none;stroke-width:2;stroke-linecap:round;stroke-linejoin:miter;stroke-miterlimit:4;stroke-dasharray:none;stroke-dashoffset:0;stroke-opacity:1;color-rendering:auto;image-rendering:auto;shape-rendering:auto;text-rendering:auto;enable-background:accumulate" id="rect10163" width="1" height="5" x="19" y="39"/><rect id="rect10175" width="2" height="3" x="14" y="36" rx="0" ry="0" style="color:#000;clip-rule:nonzero;display:inline;overflow:visible;visibility:visible;opacity:.4;isolation:auto;mix-blend-mode:normal;color-interpolation:sRGB;color-interpolation-filters:linearRGB;solid-color:#000;solid-opacity:1;fill:none;fill-opacity:1;fill-rule:evenodd;stroke:#000;stroke-width:2;stroke-linecap:round;stroke-linejoin:round;stroke-miterlimit:4;stroke-dasharray:none;stroke-dashoffset:0;stroke-opacity:1;color-rendering:auto;image-rendering:auto;shape-rendering:auto;text-rendering:auto;enable-background:accumulate"/><rect style="color:#000;clip-rule:nonzero;display:inline;overflow:visible;visibility:visible;opacity:1;isolation:auto;mix-blend-mode:normal;color-interpolation:sRGB;color-interpolation-filters:linearRGB;solid-color:#000;solid-opacity:1;fill:url(#linearGradient10171);fill-opacity:1;fill-rule:evenodd;stroke:none;stroke-width:4;stroke-linecap:round;stroke-linejoin:miter;stroke-miterlimit:4;stroke-dasharray:none;stroke-dashoffset:0;stroke-opacity:1;color-rendering:auto;image-rendering:auto;shape-rendering:auto;text-rendering:auto;enable-background:accumulate" id="rect10173" width="2" height="3" x="14" y="36" rx="0" ry="0"/><rect id="rect10192" width="1" height="3" x="8" y="40" style="color:#000;clip-rule:nonzero;display:inline;overflow:visible;visibility:visible;opacity:.2;isolation:auto;mix-blend-mode:normal;color-interpolation:sRGB;color-interpolation-filters:linearRGB;solid-color:#000;solid-opacity:1;fill:#000;fill-opacity:1;fill-rule:evenodd;stroke:none;stroke-width:2;stroke-linecap:round;stroke-linejoin:round;stroke-miterlimit:4;stroke-dasharray:none;stroke-dashoffset:0;stroke-opacity:0;color-rendering:auto;image-rendering:auto;shape-rendering:auto;text-rendering:auto;enable-background:accumulate"/><rect style="color:#000;clip-rule:nonzero;display:inline;overflow:visible;visibility:visible;opacity:.2;isolation:auto;mix-blend-mode:normal;color-interpolation:sRGB;color-interpolation-filters:linearRGB;solid-color:#000;solid-opacity:1;fill:#000;fill-opacity:1;fill-rule:evenodd;stroke:none;stroke-width:2;stroke-linecap:round;stroke-linejoin:round;stroke-miterlimit:4;stroke-dasharray:none;stroke-dashoffset:0;stroke-opacity:0;color-rendering:auto;image-rendering:auto;shape-rendering:auto;text-rendering:auto;enable-background:accumulate" id="rect10194" width="1" height="3" x="21" y="40"/><rect id="rect10196" width="1" height="3" x="15" y="36" style="color:#000;clip-rule:nonzero;display:inline;overflow:visible;visibility:visible;opacity:.2;isolation:auto;mix-blend-mode:normal;color-interpolation:sRGB;color-interpolation-filters:linearRGB;solid-color:#000;solid-opacity:1;fill:#000;fill-opacity:1;fill-rule:evenodd;stroke:none;stroke-width:2;stroke-linecap:round;stroke-linejoin:round;stroke-miterlimit:4;stroke-dasharray:none;stroke-dashoffset:0;stroke-opacity:0;color-rendering:auto;image-rendering:auto;shape-rendering:auto;text-rendering:auto;enable-background:accumulate"/><rect id="rect10198" width="2" height="1" x="14" y="38" style="color:#000;clip-rule:nonzero;display:inline;overflow:visible;visibility:visible;opacity:.2;isolation:auto;mix-blend-mode:normal;color-interpolation:sRGB;color-interpolation-filters:linearRGB;solid-color:#000;solid-opacity:1;fill:#fff;fill-opacity:1;fill-rule:evenodd;stroke:none;stroke-width:2;stroke-linecap:round;stroke-linejoin:round;stroke-miterlimit:4;stroke-dasharray:none;stroke-dashoffset:0;stroke-opacity:0;color-rendering:auto;image-rendering:auto;shape-rendering:auto;text-rendering:auto;enable-background:accumulate"/><path style="opacity:.2;fill:none;fill-rule:evenodd;stroke:#fff;stroke-width:1px;stroke-linecap:butt;stroke-linejoin:miter;stroke-opacity:1" id="path10200" d="m 10,43.5 10,0"/><rect style="display:block;overflow:visible;visibility:visible;opacity:.2;fill:url(#linearGradient10221);fill-opacity:1;fill-rule:nonzero;stroke:none;stroke-width:1;marker:none;enable-background:new" id="rect10219" width="12" height="1" x="9" y="45"/></g><g id="g18331" transform="translate(1,2)" style="opacity:.3"><rect id="rect4173-8-8" width="38.333" height="6" x="4.833" y="33" style="display:inline;overflow:visible;visibility:visible;opacity:.3;fill:url(#linearGradient12467);fill-opacity:1;fill-rule:nonzero;stroke:none;stroke-width:1;marker:none"/><path id="path5058-9-0" d="m 43.16667,33.00021 c 0,0 0,5.99967 0,5.99967 C 44.75232,39.01118 47,37.65566 47,35.99966 c 0,-1.656 -1.76947,-2.99945 -3.83333,-2.99945 z" style="display:inline;overflow:visible;visibility:visible;opacity:.3;fill:url(#radialGradient12471);fill-opacity:1;fill-rule:nonzero;stroke:none;stroke-width:1;marker:none"/><path id="path5018-6-6" d="m 4.83333,33.00021 c 0,0 0,5.99967 0,5.99967 C 3.24768,39.01118 1,37.65566 1,35.99966 c 0,-1.656 1.76947,-2.99945 3.83333,-2.99945 z" style="display:inline;overflow:visible;visibility:visible;opacity:.3;fill:url(#radialGradient12475);fill-opacity:1;fill-rule:nonzero;stroke:none;stroke-width:1;marker:none"/></g><g id="g18323" transform="translate(1,2)" style="opacity:.3"><path id="rect18299" d="m 4.5555601,34 36.5555539,0 0,4 -36.5555539,0 z" style="display:inline;overflow:visible;visibility:visible;opacity:1;fill:url(#linearGradient18305);fill-opacity:1;fill-rule:nonzero;stroke:none;stroke-width:1;marker:none"/><path style="display:inline;overflow:visible;visibility:visible;opacity:1;fill:url(#radialGradient18307);fill-opacity:1;fill-rule:nonzero;stroke:none;stroke-width:1;marker:none" id="path18301" d="m 41.111111,34.00014 c 0,0 0,3.99978 0,3.99978 1.0571,0.0075 2.555553,-0.896147 2.555553,-2.000147 0,-1.104 -1.179647,-1.999633 -2.555553,-1.999633 z"/><path style="display:inline;overflow:visible;visibility:visible;opacity:1;fill:url(#radialGradient18309);fill-opacity:1;fill-rule:nonzero;stroke:none;stroke-width:1;marker:none" id="path18303" d="m 4.5555531,34.00014 c 0,0 0,3.99978 0,3.99978 C 3.4984532,38.007453 2,37.103773 2,35.999773 2,34.895773 3.1796466,34.00014 4.5555531,34.00014 Z"/></g><path style="opacity:.4;fill:none;fill-opacity:1;fill-rule:evenodd;stroke:#000;stroke-width:2;stroke-linecap:butt;stroke-linejoin:miter;stroke-miterlimit:4;stroke-dasharray:none;stroke-opacity:1" id="path17802" d="m 38,37 c 2,0 2,-2 2,-2 l 0,-21 c 0,0 0,-3 -3,-3 L 25,11 C 22,11 22,8 19,8 L 6,8 C 3,8 3,11 3,11 l 0,24 c 0,0 0,2 2,2 z"/><path id="path17796" d="m 38,37 c 2,0 2,-2 2,-2 l 0,-21 c 0,0 0,-3 -3,-3 L 25,11 C 22,11 22,8 19,8 L 6,8 C 3,8 3,11 3,11 l 0,24 c 0,0 0,2 2,2 z" style="fill:url(#linearGradient17800);fill-opacity:1;fill-rule:evenodd;stroke:none;stroke-width:1px;stroke-linecap:butt;stroke-linejoin:miter;stroke-opacity:1"/><rect style="color:#000;clip-rule:nonzero;display:inline;overflow:visible;visibility:visible;opacity:1;isolation:auto;mix-blend-mode:normal;color-interpolation:sRGB;color-interpolation-filters:linearRGB;solid-color:#000;solid-opacity:1;fill:#f79b58;fill-opacity:1;fill-rule:evenodd;stroke:none;stroke-width:2;stroke-linecap:round;stroke-linejoin:round;stroke-miterlimit:4;stroke-dasharray:none;stroke-dashoffset:0;stroke-opacity:1;color-rendering:auto;image-rendering:auto;shape-rendering:auto;text-rendering:auto;enable-background:accumulate" id="rect17804" width="12" height="2" x="6" y="9" ry=".969"/><path id="path18094" d="m 37,36 c 2,0 2,-2 2,-2 l 0,-21 c 0,0 0,-3 -3,-3 L 24,10 C 21,10 21,7 18,7 L 5,7 C 2,7 2,10 2,10 l 0,24 c 0,0 0,2 2,2 z" clip-path="url(#clipPath18098)" transform="translate(1,1)" style="opacity:.4;fill:none;fill-opacity:1;fill-rule:evenodd;stroke:url(#linearGradient18110);stroke-width:2;stroke-linecap:butt;stroke-linejoin:miter;stroke-miterlimit:4;stroke-dasharray:none;stroke-opacity:1"/><path style="color:#000;clip-rule:nonzero;display:inline;overflow:visible;visibility:visible;opacity:.2;isolation:auto;mix-blend-mode:normal;color-interpolation:sRGB;color-interpolation-filters:linearRGB;solid-color:#000;solid-opacity:1;fill:#000;fill-opacity:1;fill-rule:evenodd;stroke:none;stroke-width:2;stroke-linecap:round;stroke-linejoin:round;stroke-miterlimit:4;stroke-dasharray:none;stroke-dashoffset:0;stroke-opacity:1;color-rendering:auto;image-rendering:auto;shape-rendering:auto;text-rendering:auto;enable-background:accumulate" id="rect17563" d="m 6,16 0,1 1,0 0,-1 -1,0 z m 3,0 0,1 1,0 0,-1 -1,0 z m 3,0 0,1 1,0 0,-1 -1,0 z m 3,0 0,1 1,0 0,-1 -1,0 z m 3,0 0,1 1,0 0,-1 -1,0 z m 3,0 0,1 1,0 0,-1 -1,0 z m 3,0 0,1 1,0 0,-1 -1,0 z m 3,0 0,1 1,0 0,-1 -1,0 z m 3,0 0,1 1,0 0,-1 -1,0 z m 3,0 0,1 1,0 0,-1 -1,0 z m 3,0 0,1 1,0 0,-1 -1,0 z m -30,3 0,1 1,0 0,-1 -1,0 z m 3,0 0,1 1,0 0,-1 -1,0 z m 3,0 0,1 1,0 0,-1 -1,0 z m 3,0 0,1 1,0 0,-1 -1,0 z m 3,0 0,1 1,0 0,-1 -1,0 z m 3,0 0,1 1,0 0,-1 -1,0 z m 3,0 0,1 1,0 0,-1 -1,0 z m 3,0 0,1 1,0 0,-1 -1,0 z m 3,0 0,1 1,0 0,-1 -1,0 z m 3,0 0,1 1,0 0,-1 -1,0 z m 3,0 0,1 1,0 0,-1 -1,0 z m -30,3 0,1 1,0 0,-1 -1,0 z m 3,0 0,1 1,0 0,-1 -1,0 z m 3,0 0,1 1,0 0,-1 -1,0 z m 3,0 0,1 1,0 0,-1 -1,0 z m 3,0 0,1 1,0 0,-1 -1,0 z m 3,0 0,1 1,0 0,-1 -1,0 z m 3,0 0,1 1,0 0,-1 -1,0 z m 3,0 0,1 1,0 0,-1 -1,0 z m 3,0 0,1 1,0 0,-1 -1,0 z m 3,0 0,1 1,0 0,-1 -1,0 z m 3,0 0,1 1,0 0,-1 -1,0 z m -30,3 0,1 1,0 0,-1 -1,0 z m 3,0 0,1 1,0 0,-1 -1,0 z m 3,0 0,1 1,0 0,-1 -1,0 z m 3,0 0,1 1,0 0,-1 -1,0 z m 3,0 0,1 1,0 0,-1 -1,0 z m 3,0 0,1 1,0 0,-1 -1,0 z m 3,0 0,1 1,0 0,-1 -1,0 z m 3,0 0,1 1,0 0,-1 -1,0 z m 3,0 0,1 1,0 0,-1 -1,0 z m 3,0 0,1 1,0 0,-1 -1,0 z m 3,0 0,1 1,0 0,-1 -1,0 z m -30,3 0,1 1,0 0,-1 -1,0 z m 3,0 0,1 1,0 0,-1 -1,0 z m 3,0 0,1 1,0 0,-1 -1,0 z m 3,0 0,1 1,0 0,-1 -1,0 z m 3,0 0,1 1,0 0,-1 -1,0 z m 3,0 0,1 1,0 0,-1 -1,0 z m 3,0 0,1 1,0 0,-1 -1,0 z m 3,0 0,1 1,0 0,-1 -1,0 z m 3,0 0,1 1,0 0,-1 -1,0 z m 3,0 0,1 1,0 0,-1 -1,0 z m 3,0 0,1 1,0 0,-1 -1,0 z m -30,3 0,1 1,0 0,-1 -1,0 z m 3,0 0,1 1,0 0,-1 -1,0 z m 3,0 0,1 1,0 0,-1 -1,0 z m 3,0 0,1 1,0 0,-1 -1,0 z m 3,0 0,1 1,0 0,-1 -1,0 z m 3,0 0,1 1,0 0,-1 -1,0 z m 3,0 0,1 1,0 0,-1 -1,0 z m 3,0 0,1 1,0 0,-1 -1,0 z m 3,0 0,1 1,0 0,-1 -1,0 z m 3,0 0,1 1,0 0,-1 -1,0 z m 3,0 0,1 1,0 0,-1 -1,0 z m -30,3 0,1 1,0 0,-1 -1,0 z m 3,0 0,1 1,0 0,-1 -1,0 z m 3,0 0,1 1,0 0,-1 -1,0 z m 3,0 0,1 1,0 0,-1 -1,0 z m 3,0 0,1 1,0 0,-1 -1,0 z m 3,0 0,1 1,0 0,-1 -1,0 z m 3,0 0,1 1,0 0,-1 -1,0 z m 3,0 0,1 1,0 0,-1 -1,0 z m 3,0 0,1 1,0 0,-1 -1,0 z m 3,0 0,1 1,0 0,-1 -1,0 z m 3,0 0,1 1,0 0,-1 -1,0 z"/><path style="opacity:.9;fill:url(#radialGradient17499);fill-opacity:1;fill-rule:evenodd;stroke:none;stroke-width:1px;stroke-linecap:butt;stroke-linejoin:miter;stroke-opacity:1" id="path17464" d="m 27,15.5 c -1.666667,0 -2.603516,0.896484 -3.353516,1.646484 C 22.896484,17.896484 22.333333,18.5 21,18.5 l -13,0 C 6.3333333,18.5 5.3623629,19.408087 4.9277344,20.277344 4.4931059,21.146601 4.5,22 4.5,22 l 0,13 c 0,0 -0.00689,0.396601 -0.1972656,0.777344 C 4.1123629,36.158087 3.8333333,36.5 3,36.5 l 0,0.5 0,0.5 38,0 c 1.166667,0 1.887637,-0.658087 2.197266,-1.277344 C 43.506894,35.603399 43.5,35 43.5,35 l 0,-16 c 0,0 0.0069,-0.853399 -0.427734,-1.722656 C 42.637637,16.408087 41.666667,15.5 40,15.5 l -13,0 z"/><path style="opacity:.8;fill:url(#radialGradient17543);fill-opacity:1;fill-rule:evenodd;stroke:none;stroke-width:1px;stroke-linecap:butt;stroke-linejoin:miter;stroke-opacity:1" id="path17530" d="m 27,16 c -3,0 -3,3 -6,3 L 8,19 c -3,0 -3,3 -3,3 l 0,7.78125 c 9.566924,-2.970373 20.202193,-4.524923 31,-4.53125 2.338399,0.003 4.67493,0.07862 7,0.226562 L 43,19 c 0,0 0,-3 -3,-3 z"/><path style="opacity:.5;fill:none;fill-opacity:1;fill-rule:evenodd;stroke:url(#linearGradient18112);stroke-width:2;stroke-linecap:butt;stroke-linejoin:round;stroke-miterlimit:4;stroke-dasharray:none;stroke-opacity:1" id="path17808" d="m 2,36 c 2,0 2,-2 2,-2 L 4,21 c 0,0 0,-3 3,-3 l 13,0 c 3,0 3,-3 6,-3 l 13,0 c 3,0 3,3 3,3 l 0,16 c 0,0 0,2 -2,2 z" clip-path="url(#clipPath17812)" transform="translate(1,1)"/><path style="opacity:.1;fill:none;fill-rule:evenodd;stroke:#fff;stroke-width:1px;stroke-linecap:butt;stroke-linejoin:miter;stroke-opacity:1" id="path17826" d="m 5,35.5 35,0"/><path style="opacity:.05;fill:none;fill-rule:evenodd;stroke:#000;stroke-width:1px;stroke-linecap:butt;stroke-linejoin:miter;stroke-opacity:1" id="path17858" d="m 40.5,16 0,18.5 c 0.125,3.25 -3.5,3 -3.5,3"/><path id="path18218" d="m 27,15.5 c -1.666667,0 -2.603516,0.896484 -3.353516,1.646484 C 22.896484,17.896484 22.333333,18.5 21,18.5 l -13,0 C 6.3333333,18.5 5.3623629,19.408087 4.9277344,20.277344 4.4931059,21.146601 4.5,22 4.5,22 l 0,13 c 0,0 -0.00689,0.396601 -0.1972656,0.777344 C 4.1123629,36.158087 3.8333333,36.5 3,36.5 l 0,0.5 0,0.5 38,0 c 1.166667,0 1.887637,-0.658087 2.197266,-1.277344 C 43.506894,35.603399 43.5,35 43.5,35 l 0,-16 c 0,0 0.0069,-0.853399 -0.427734,-1.722656 C 42.637637,16.408087 41.666667,15.5 40,15.5 l -13,0 z" style="opacity:.3;fill:none;fill-opacity:1;fill-rule:evenodd;stroke:#000;stroke-width:1px;stroke-linecap:butt;stroke-linejoin:round;stroke-opacity:1"/></g></svg>