<svg xmlns="http://www.w3.org/2000/svg" xmlns:svg="http://www.w3.org/2000/svg" xmlns:xlink="http://www.w3.org/1999/xlink" id="svg12664" width="48" height="48" version="1.1" viewBox="0 0 48 48"><defs id="defs12666"><linearGradient id="linearGradient17818"><stop style="stop-color:#fff;stop-opacity:1" id="stop17820" offset="0"/><stop style="stop-color:#fff;stop-opacity:0" id="stop17822" offset="1"/></linearGradient><linearGradient id="linearGradient17537"><stop style="stop-color:#fff;stop-opacity:.6" id="stop17539" offset="0"/><stop style="stop-color:#fff;stop-opacity:0" id="stop17541" offset="1"/></linearGradient><linearGradient id="XMLID_14_" x1="53.916" x2="55.82" y1="91.115" y2="110.67" gradientTransform="translate(-134.625,-43.05)" gradientUnits="userSpaceOnUse"><stop style="stop-color:#999" id="stop4" offset="0"/><stop style="stop-color:#4d4d4d" id="stop6" offset="1"/></linearGradient><linearGradient id="XMLID_15_" x1="56.851" x2="58.826" y1="91.508" y2="111.784" gradientTransform="translate(-134.625,-43.05)" gradientUnits="userSpaceOnUse"><stop style="stop-color:#999" id="stop11" offset="0"/><stop style="stop-color:#4d4d4d" id="stop13" offset="1"/></linearGradient><linearGradient id="XMLID_16_" x1="57.941" x2="60.232" y1="89.601" y2="113.126" gradientTransform="translate(-134.625,-43.05)" gradientUnits="userSpaceOnUse"><stop style="stop-color:#999" id="stop18" offset="0"/><stop style="stop-color:#4d4d4d" id="stop20" offset="1"/></linearGradient><linearGradient id="XMLID_17_" x1="47.312" x2="58.863" y1="10.758" y2="110.298" gradientTransform="translate(-134.625,-43.05)" gradientUnits="userSpaceOnUse"><stop style="stop-color:#999" id="stop25" offset="0"/><stop style="stop-color:#4d4d4d" id="stop27" offset="1"/></linearGradient><linearGradient id="XMLID_18_" x1="35.979" x2="68.929" y1="15.023" y2="107.283" gradientTransform="translate(-134.625,-43.05)" gradientUnits="userSpaceOnUse"><stop style="stop-color:#fff" id="stop32" offset="0"/><stop style="stop-color:#f4f4f4" id="stop34" offset=".219"/><stop style="stop-color:#d8d8d8" id="stop36" offset=".601"/><stop style="stop-color:#b3b3b3" id="stop38" offset="1"/></linearGradient><linearGradient id="XMLID_19_" x1="49.922" x2="58.37" y1="23.245" y2="104.019" gradientTransform="translate(-134.625,-43.05)" gradientUnits="userSpaceOnUse"><stop style="stop-color:#d9d9d9" id="stop45" offset="0"/><stop style="stop-color:#cecece" id="stop47" offset=".375"/><stop style="stop-color:#b3b3b3" id="stop49" offset="1"/></linearGradient><linearGradient id="XMLID_20_" x1="54.991" x2="63.21" y1="39.262" y2="110.089" gradientTransform="translate(-134.625,-43.05)" gradientUnits="userSpaceOnUse"><stop style="stop-color:#999" id="stop54" offset="0"/><stop style="stop-color:#4d4d4d" id="stop56" offset="1"/></linearGradient><radialGradient id="XMLID_21_" cx="79.615" cy="116.734" r="88.042" gradientTransform="translate(-134.625,-43.05)" gradientUnits="userSpaceOnUse"><stop style="stop-color:#ffdd70" id="stop61" offset="0"/><stop style="stop-color:#ffab43" id="stop63" offset=".422"/><stop style="stop-color:#ff841f" id="stop65" offset=".802"/><stop style="stop-color:#ff7512" id="stop67" offset="1"/></radialGradient><radialGradient id="XMLID_22_" cx="126.5" cy="130.198" r="82.374" gradientTransform="translate(-194.625,-43.05)" gradientUnits="userSpaceOnUse"><stop style="stop-color:#f3a848;stop-opacity:1" id="stop72" offset="0"/><stop style="stop-color:#fc8723" id="stop76" offset=".754"/><stop style="stop-color:#f4802a;stop-opacity:1" id="stop78" offset="1"/></radialGradient><linearGradient id="XMLID_23_" x1="132.506" x2="40.76" y1="35.301" y2="115.453" gradientTransform="translate(-134.625,-43.05)" gradientUnits="userSpaceOnUse"><stop style="stop-color:#ffdd70" id="stop83" offset="0"/><stop style="stop-color:#ffb047" id="stop85" offset=".383"/><stop style="stop-color:#ff8521" id="stop87" offset=".791"/><stop style="stop-color:#ff7512" id="stop89" offset="1"/></linearGradient><radialGradient id="XMLID_24_" cx="87.547" cy="108.134" r="112.454" gradientTransform="translate(-134.625,-43.05)" gradientUnits="userSpaceOnUse"><stop style="stop-color:#fff3cc" id="stop94" offset="0"/><stop style="stop-color:#ffdbaa" id="stop96" offset=".191"/><stop style="stop-color:#ffb06c" id="stop98" offset=".574"/><stop style="stop-color:#ff9445" id="stop100" offset=".854"/><stop style="stop-color:#ff8a36" id="stop102" offset="1"/></radialGradient><linearGradient id="XMLID_25_" x1="59.637" x2="65.511" y1="28.64" y2="120.586" gradientTransform="translate(-134.625,-43.05)" gradientUnits="userSpaceOnUse"><stop style="stop-color:#ebdba6" id="stop107" offset="0"/><stop style="stop-color:#ff7512" id="stop109" offset="1"/></linearGradient><linearGradient id="XMLID_26_" x1="103.954" x2="108.03" y1="11.405" y2="106.01" gradientTransform="translate(-134.625,-43.05)" gradientUnits="userSpaceOnUse"><stop style="stop-color:#999" id="stop114" offset="0"/><stop style="stop-color:#4d4d4d" id="stop116" offset="1"/></linearGradient><radialGradient id="radialGradient17499" cx="32" cy="49.448" r="20" fx="32" fy="49.448" gradientTransform="matrix(-4.0167788e-8,-1.5000001,1.4,-3.7489927e-8,-36.227777,88.000004)" gradientUnits="userSpaceOnUse" xlink:href="#XMLID_22_"/><radialGradient id="radialGradient17543" cx="27.646" cy="62.325" r="19" fx="27.646" fy="62.325" gradientTransform="matrix(2.5263158,-2.0415251e-7,1.8713982e-7,2.3157897,-47.842119,-122.33128)" gradientUnits="userSpaceOnUse" xlink:href="#linearGradient17537"/><clipPath id="clipPath17549" clipPathUnits="userSpaceOnUse"><path style="fill:url(#radialGradient17553);fill-opacity:1;fill-rule:evenodd;stroke:none;stroke-width:1px;stroke-linecap:butt;stroke-linejoin:miter;stroke-opacity:1" id="path17551" d="M 2,36 4,34 4,20 c 0,0 0,-2 2,-2 l 14,0 c 3,0 3,-3 6,-3 l 14,0 c 2,0 2,2 2,2 l 0,17 c 0,0 0,2 -2,2 z"/></clipPath><radialGradient id="radialGradient17553" cx="32" cy="55.341" r="20" fx="32" fy="55.341" gradientTransform="matrix(2.2,8.9007e-8,-8.091545e-8,1.9999999,-38.399996,-66.682539)" gradientUnits="userSpaceOnUse" xlink:href="#XMLID_21_"/><linearGradient id="linearGradient17800" x1="16" x2="40" y1="2" y2="46" gradientTransform="translate(1,6)" gradientUnits="userSpaceOnUse" xlink:href="#XMLID_18_"/><clipPath id="clipPath18098" clipPathUnits="userSpaceOnUse"><path style="fill:url(#linearGradient18102);fill-opacity:1;fill-rule:evenodd;stroke:none;stroke-width:1px;stroke-linecap:butt;stroke-linejoin:miter;stroke-opacity:1" id="path18100" d="m 37,36 c 2,0 2,-2 2,-2 l 0,-21 c 0,0 0,-3 -3,-3 L 24,10 C 21,10 21,7 18,7 L 5,7 C 2,7 2,10 2,10 l 0,24 c 0,0 0,2 2,2 z"/></clipPath><linearGradient id="linearGradient18102" x1="16" x2="40" y1="2" y2="46" gradientTransform="translate(0,2)" gradientUnits="userSpaceOnUse" xlink:href="#XMLID_18_"/><linearGradient id="linearGradient18110" x1="20" x2="20" y1="7" y2="29" gradientUnits="userSpaceOnUse" xlink:href="#linearGradient17818"/><linearGradient id="linearGradient18112" x1="14" x2="14" y1="15" y2="18" gradientUnits="userSpaceOnUse" xlink:href="#linearGradient17818"/><linearGradient id="linearGradient12467" x1="302.857" x2="302.857" y1="366.648" y2="609.505" gradientTransform="matrix(0.07938856,0,0,0.02470588,-4.69329,23.94164)" gradientUnits="userSpaceOnUse" xlink:href="#linearGradient5048-585-73-1-5"/><linearGradient id="linearGradient5048-585-73-1-5"><stop id="stop2667-99-4-6" offset="0" style="stop-color:#000;stop-opacity:0"/><stop id="stop2669-5-9-4" offset=".5" style="stop-color:#000;stop-opacity:1"/><stop id="stop2671-56-4-2" offset="1" style="stop-color:#000;stop-opacity:0"/></linearGradient><radialGradient id="radialGradient12471" cx="605.714" cy="486.648" r="117.143" fx="605.714" fy="486.648" gradientTransform="matrix(0.03079083,0,0,0.02470588,23.61058,23.94164)" gradientUnits="userSpaceOnUse" xlink:href="#linearGradient5060-179-37-4-0"/><linearGradient id="linearGradient5060-179-37-4-0"><stop id="stop2675-91-9-2" offset="0" style="stop-color:#000;stop-opacity:1"/><stop id="stop2677-09-0-9" offset="1" style="stop-color:#000;stop-opacity:0"/></linearGradient><radialGradient id="radialGradient12475" cx="605.714" cy="486.648" r="117.143" fx="605.714" fy="486.648" gradientTransform="matrix(-0.03079083,0,0,0.02470588,23.38975,23.94164)" gradientUnits="userSpaceOnUse" xlink:href="#linearGradient5060-179-37-4-0"/><linearGradient id="linearGradient18305" x1="302.857" x2="302.857" y1="366.648" y2="609.505" gradientTransform="matrix(0.0529257,0,0,0.01647059,-1.7955263,27.961094)" gradientUnits="userSpaceOnUse" xlink:href="#linearGradient5048-585-73-1-5"/><radialGradient id="radialGradient18307" cx="605.714" cy="486.648" r="117.143" fx="605.714" fy="486.648" gradientTransform="matrix(0.02052722,0,0,0.01647059,28.740165,27.961094)" gradientUnits="userSpaceOnUse" xlink:href="#linearGradient5060-179-37-4-0"/><radialGradient id="radialGradient18309" cx="605.714" cy="486.648" r="117.143" fx="605.714" fy="486.648" gradientTransform="matrix(-0.02052722,0,0,0.01647059,16.926499,27.961094)" gradientUnits="userSpaceOnUse" xlink:href="#linearGradient5060-179-37-4-0"/><radialGradient id="radialGradient3090" cx="62.625" cy="4.625" r="10.625" fx="62.625" fy="4.625" gradientTransform="matrix(1.1294118,0,0,0.2823525,-58.729414,19.694118)" gradientUnits="userSpaceOnUse" xlink:href="#linearGradient5060-179-37-4-0"/><radialGradient id="radialGradient3100" cx="8.424" cy="8.45" r="20" fx="8.424" fy="8.45" gradientTransform="matrix(3.5576142e-8,0.80000036,-1.0000005,3.259241e-8,20.449815,-2.4889891)" gradientUnits="userSpaceOnUse" xlink:href="#linearGradient2867-449-88-871-390-598-476-591-434-148-57-177-3-8-9"/><linearGradient id="linearGradient2867-449-88-871-390-598-476-591-434-148-57-177-3-8-9"><stop id="stop3750-8-9-6" offset="0" style="stop-color:#ff9e23;stop-opacity:1"/><stop id="stop3756-9-3-0" offset="1" style="stop-color:#ff7000;stop-opacity:1"/></linearGradient><linearGradient id="linearGradient3078" x1="71.204" x2="71.204" y1="6.238" y2="44.341" gradientTransform="matrix(0.5135135,0,0,0.5135135,-24.836132,-1.021284)" gradientUnits="userSpaceOnUse" xlink:href="#linearGradient4011"/><linearGradient id="linearGradient4011"><stop id="stop4013" offset="0" style="stop-color:#fff;stop-opacity:1"/><stop id="stop4015" offset=".508" style="stop-color:#fff;stop-opacity:.23529412"/><stop id="stop4017" offset=".835" style="stop-color:#fff;stop-opacity:.15686275"/><stop id="stop4019" offset="1" style="stop-color:#fff;stop-opacity:.39215687"/></linearGradient><clipPath id="clipPath8203" clipPathUnits="userSpaceOnUse"><path style="fill:url(#radialGradient8207);fill-opacity:1;fill-rule:evenodd;stroke:none;stroke-width:1px;stroke-linecap:butt;stroke-linejoin:miter;stroke-opacity:1" id="path8205" d="m 2,36 c 2,0 2,-2 2,-2 L 4,18 c 0,0 0,-3 3,-3 l 13,0 c 3,0 3,-3 6,-3 l 13,0 c 3,0 3,3 3,3 l 0,19 c 0,0 0,2 -2,2 z"/></clipPath><radialGradient id="radialGradient8207" cx="32" cy="55.341" r="20" fx="32" fy="55.341" gradientTransform="matrix(2.2,8.9007e-8,-8.091545e-8,1.9999999,-38.399996,-66.682539)" gradientUnits="userSpaceOnUse" xlink:href="#XMLID_21_"/><radialGradient id="radialGradient3090-5" cx="62.625" cy="4.625" r="10.625" fx="62.625" fy="4.625" gradientTransform="matrix(1.1294118,0,0,0.2823525,-58.729414,19.694118)" gradientUnits="userSpaceOnUse" xlink:href="#linearGradient5060-179-37-4-0"/><radialGradient id="radialGradient3100-5" cx="8.424" cy="8.45" r="20" fx="8.424" fy="8.45" gradientTransform="matrix(3.5576142e-8,0.80000036,-1.0000005,3.259241e-8,20.449815,-2.4889891)" gradientUnits="userSpaceOnUse" xlink:href="#linearGradient2867-449-88-871-390-598-476-591-434-148-57-177-3-8-9"/></defs><metadata id="metadata12669"/><g id="layer1"><g id="g8210" transform="translate(1,2)"><g style="opacity:.3" id="g18331" transform="translate(1,5)"><path style="display:inline;overflow:visible;visibility:visible;opacity:.3;fill:url(#radialGradient12471);fill-opacity:1;fill-rule:nonzero;stroke:none;stroke-width:1;marker:none" id="path5058-9-0" d="m 42.167,33.00021 c 0,0 0,5.99967 0,5.99967 1.58565,0.0113 3.83333,-1.34422 3.83333,-3.00022 0,-1.656 -1.76947,-2.99945 -3.83333,-2.99945 z"/><path id="rect4173-8-8" d="M 4.8333406,33 42.167,33 l 0,6 -37.3336594,0 z" style="display:inline;overflow:visible;visibility:visible;opacity:.3;fill:url(#linearGradient12467);fill-opacity:1;fill-rule:nonzero;stroke:none;stroke-width:1;marker:none"/><path style="display:inline;overflow:visible;visibility:visible;opacity:.3;fill:url(#radialGradient12475);fill-opacity:1;fill-rule:nonzero;stroke:none;stroke-width:1;marker:none" id="path5018-6-6" d="m 4.83333,33.00021 c 0,0 0,5.99967 0,5.99967 C 3.24768,39.01118 1,37.65566 1,35.99966 c 0,-1.656 1.76947,-2.99945 3.83333,-2.99945 z"/></g><g style="opacity:.3" id="g18323" transform="translate(1,5)"><path style="display:inline;overflow:visible;visibility:visible;opacity:1;fill:url(#linearGradient18305);fill-opacity:1;fill-rule:nonzero;stroke:none;stroke-width:1;marker:none" id="rect18299" d="m 4.5555601,34 36.5555539,0 0,4 -36.5555539,0 z"/><path id="path18301" d="m 41.111111,34.00014 c 0,0 0,3.99978 0,3.99978 1.0571,0.0075 2.555553,-0.896147 2.555553,-2.000147 0,-1.104 -1.179647,-1.999633 -2.555553,-1.999633 z" style="display:inline;overflow:visible;visibility:visible;opacity:1;fill:url(#radialGradient18307);fill-opacity:1;fill-rule:nonzero;stroke:none;stroke-width:1;marker:none"/><path id="path18303" d="m 4.5555531,34.00014 c 0,0 0,3.99978 0,3.99978 C 3.4984532,38.007453 2,37.103773 2,35.999773 2,34.895773 3.1796466,34.00014 4.5555531,34.00014 Z" style="display:inline;overflow:visible;visibility:visible;opacity:1;fill:url(#radialGradient18309);fill-opacity:1;fill-rule:nonzero;stroke:none;stroke-width:1;marker:none"/></g><path id="path17802" d="m 38,40 c 2,0 2,-2 2,-2 l 0,-23 c 0,0 0,-3 -3,-3 L 25,12 C 22,12 22,9 19,9 L 6,9 C 3,9 3,12 3,12 l 0,26 c 0,0 0,2 2,2 z" style="opacity:.4;fill:none;fill-opacity:1;fill-rule:evenodd;stroke:#000;stroke-width:2;stroke-linecap:butt;stroke-linejoin:miter;stroke-miterlimit:4;stroke-dasharray:none;stroke-opacity:1"/><path style="fill:url(#linearGradient17800);fill-opacity:1;fill-rule:evenodd;stroke:none;stroke-width:1px;stroke-linecap:butt;stroke-linejoin:miter;stroke-opacity:1" id="path17796" d="m 38,40 c 2,0 2,-2 2,-2 l 0,-23 c 0,0 0,-3 -3,-3 L 25,12 C 22,12 22,9 19,9 L 6,9 C 3,9 3,12 3,12 l 0,26 c 0,0 0,2 2,2 z"/><rect id="rect17804" width="12" height="2" x="6" y="10" ry=".969" style="color:#000;clip-rule:nonzero;display:inline;overflow:visible;visibility:visible;opacity:1;isolation:auto;mix-blend-mode:normal;color-interpolation:sRGB;color-interpolation-filters:linearRGB;solid-color:#000;solid-opacity:1;fill:#f79b58;fill-opacity:1;fill-rule:evenodd;stroke:none;stroke-width:2;stroke-linecap:round;stroke-linejoin:round;stroke-miterlimit:4;stroke-dasharray:none;stroke-dashoffset:0;stroke-opacity:1;color-rendering:auto;image-rendering:auto;shape-rendering:auto;text-rendering:auto;enable-background:accumulate"/><path style="opacity:.4;fill:none;fill-opacity:1;fill-rule:evenodd;stroke:url(#linearGradient18110);stroke-width:2;stroke-linecap:butt;stroke-linejoin:miter;stroke-miterlimit:4;stroke-dasharray:none;stroke-opacity:1" id="path18094" d="m 37,36 c 2,0 2,-2 2,-2 l 0,-21 c 0,0 0,-3 -3,-3 L 24,10 C 21,10 21,7 18,7 L 5,7 C 2,7 2,10 2,10 l 0,24 c 0,0 0,2 2,2 z" clip-path="url(#clipPath18098)" transform="translate(1,2)"/><path id="rect17563" d="m 6,16 0,1 1,0 0,-1 -1,0 z m 3,0 0,1 1,0 0,-1 -1,0 z m 3,0 0,1 1,0 0,-1 -1,0 z m 3,0 0,1 1,0 0,-1 -1,0 z m 3,0 0,1 1,0 0,-1 -1,0 z m 3,0 0,1 1,0 0,-1 -1,0 z m 3,0 0,1 1,0 0,-1 -1,0 z m 3,0 0,1 1,0 0,-1 -1,0 z m 3,0 0,1 1,0 0,-1 -1,0 z m 3,0 0,1 1,0 0,-1 -1,0 z m 3,0 0,1 1,0 0,-1 -1,0 z m -30,3 0,1 1,0 0,-1 -1,0 z m 3,0 0,1 1,0 0,-1 -1,0 z m 3,0 0,1 1,0 0,-1 -1,0 z m 3,0 0,1 1,0 0,-1 -1,0 z m 3,0 0,1 1,0 0,-1 -1,0 z m 3,0 0,1 1,0 0,-1 -1,0 z m 3,0 0,1 1,0 0,-1 -1,0 z m 3,0 0,1 1,0 0,-1 -1,0 z m 3,0 0,1 1,0 0,-1 -1,0 z m 3,0 0,1 1,0 0,-1 -1,0 z m 3,0 0,1 1,0 0,-1 -1,0 z m -30,3 0,1 1,0 0,-1 -1,0 z m 3,0 0,1 1,0 0,-1 -1,0 z m 3,0 0,1 1,0 0,-1 -1,0 z m 3,0 0,1 1,0 0,-1 -1,0 z m 3,0 0,1 1,0 0,-1 -1,0 z m 3,0 0,1 1,0 0,-1 -1,0 z m 3,0 0,1 1,0 0,-1 -1,0 z m 3,0 0,1 1,0 0,-1 -1,0 z m 3,0 0,1 1,0 0,-1 -1,0 z m 3,0 0,1 1,0 0,-1 -1,0 z m 3,0 0,1 1,0 0,-1 -1,0 z m -30,3 0,1 1,0 0,-1 -1,0 z m 3,0 0,1 1,0 0,-1 -1,0 z m 3,0 0,1 1,0 0,-1 -1,0 z m 3,0 0,1 1,0 0,-1 -1,0 z m 3,0 0,1 1,0 0,-1 -1,0 z m 3,0 0,1 1,0 0,-1 -1,0 z m 3,0 0,1 1,0 0,-1 -1,0 z m 3,0 0,1 1,0 0,-1 -1,0 z m 3,0 0,1 1,0 0,-1 -1,0 z m 3,0 0,1 1,0 0,-1 -1,0 z m 3,0 0,1 1,0 0,-1 -1,0 z m -30,3 0,1 1,0 0,-1 -1,0 z m 3,0 0,1 1,0 0,-1 -1,0 z m 3,0 0,1 1,0 0,-1 -1,0 z m 3,0 0,1 1,0 0,-1 -1,0 z m 3,0 0,1 1,0 0,-1 -1,0 z m 3,0 0,1 1,0 0,-1 -1,0 z m 3,0 0,1 1,0 0,-1 -1,0 z m 3,0 0,1 1,0 0,-1 -1,0 z m 3,0 0,1 1,0 0,-1 -1,0 z m 3,0 0,1 1,0 0,-1 -1,0 z m 3,0 0,1 1,0 0,-1 -1,0 z m -30,3 0,1 1,0 0,-1 -1,0 z m 3,0 0,1 1,0 0,-1 -1,0 z m 3,0 0,1 1,0 0,-1 -1,0 z m 3,0 0,1 1,0 0,-1 -1,0 z m 3,0 0,1 1,0 0,-1 -1,0 z m 3,0 0,1 1,0 0,-1 -1,0 z m 3,0 0,1 1,0 0,-1 -1,0 z m 3,0 0,1 1,0 0,-1 -1,0 z m 3,0 0,1 1,0 0,-1 -1,0 z m 3,0 0,1 1,0 0,-1 -1,0 z m 3,0 0,1 1,0 0,-1 -1,0 z m -30,3 0,1 1,0 0,-1 -1,0 z m 3,0 0,1 1,0 0,-1 -1,0 z m 3,0 0,1 1,0 0,-1 -1,0 z m 3,0 0,1 1,0 0,-1 -1,0 z m 3,0 0,1 1,0 0,-1 -1,0 z m 3,0 0,1 1,0 0,-1 -1,0 z m 3,0 0,1 1,0 0,-1 -1,0 z m 3,0 0,1 1,0 0,-1 -1,0 z m 3,0 0,1 1,0 0,-1 -1,0 z m 3,0 0,1 1,0 0,-1 -1,0 z m 3,0 0,1 1,0 0,-1 -1,0 z m -30,3 0,1 1,0 0,-1 -1,0 z m 3,0 0,1 1,0 0,-1 -1,0 z m 3,0 0,1 1,0 0,-1 -1,0 z m 3,0 0,1 1,0 0,-1 -1,0 z m 3,0 0,1 1,0 0,-1 -1,0 z m 3,0 0,1 1,0 0,-1 -1,0 z m 3,0 0,1 1,0 0,-1 -1,0 z m 3,0 0,1 1,0 0,-1 -1,0 z m 3,0 0,1 1,0 0,-1 -1,0 z m 3,0 0,1 1,0 0,-1 -1,0 z m 3,0 0,1 1,0 0,-1 -1,0 z" style="color:#000;clip-rule:nonzero;display:inline;overflow:visible;visibility:visible;opacity:.2;isolation:auto;mix-blend-mode:normal;color-interpolation:sRGB;color-interpolation-filters:linearRGB;solid-color:#000;solid-opacity:1;fill:#000;fill-opacity:1;fill-rule:evenodd;stroke:none;stroke-width:2;stroke-linecap:round;stroke-linejoin:round;stroke-miterlimit:4;stroke-dasharray:none;stroke-dashoffset:0;stroke-opacity:1;color-rendering:auto;image-rendering:auto;shape-rendering:auto;text-rendering:auto;enable-background:accumulate"/><path id="path17464" d="m 27,15.5 c -1.666667,0 -2.603516,0.896484 -3.353516,1.646484 C 22.896484,17.896484 22.333333,18.5 21,18.5 l -13,0 C 6.3333333,18.5 5.3623629,19.408087 4.9277344,20.277344 4.4931059,21.146601 4.5,22 4.5,22 l 0,16 c 0,0 -0.00689,0.396601 -0.1972656,0.777344 C 4.1123629,39.158087 3.8333333,39.5 3,39.5 l 0,0.5 0,0.5 38,0 c 1.166667,0 1.887637,-0.658087 2.197266,-1.277344 C 43.506894,38.603399 43.5,38 43.5,38 l 0,-19 c 0,0 0.0069,-0.853399 -0.427734,-1.722656 C 42.637637,16.408087 41.666667,15.5 40,15.5 Z" style="opacity:.9;fill:url(#radialGradient17499);fill-opacity:1;fill-rule:evenodd;stroke:none;stroke-width:1px;stroke-linecap:butt;stroke-linejoin:miter;stroke-opacity:1"/><path id="path17530" d="m 27,16 c -3,0 -3,3 -6,3 L 8,19 c -3,0 -3,3 -3,3 l 0,7.78125 c 9.566924,-2.970373 20.202193,-3.524923 31,-3.53125 2.338399,0.003 4.67493,0.07862 7,0.226562 L 43,19 c 0,0 0,-3 -3,-3 z" style="opacity:.8;fill:url(#radialGradient17543);fill-opacity:1;fill-rule:evenodd;stroke:none;stroke-width:1px;stroke-linecap:butt;stroke-linejoin:miter;stroke-opacity:1"/><path id="path17826" d="m 5,38.5 35,0" style="opacity:.1;fill:none;fill-rule:evenodd;stroke:#fff;stroke-width:1px;stroke-linecap:butt;stroke-linejoin:miter;stroke-opacity:1"/><path id="path17858" d="m 40.5,16 0,21.5 c 0.125,3.25 -3.5,3 -3.5,3" style="opacity:.05;fill:none;fill-rule:evenodd;stroke:#000;stroke-width:1px;stroke-linecap:butt;stroke-linejoin:miter;stroke-opacity:1"/><path style="opacity:.3;fill:none;fill-opacity:1;fill-rule:evenodd;stroke:#000;stroke-width:1px;stroke-linecap:butt;stroke-linejoin:round;stroke-opacity:1" id="path18218" d="m 27,15.5 c -1.666667,0 -2.603516,0.896484 -3.353516,1.646484 C 22.896484,17.896484 22.333333,18.5 21,18.5 l -13,0 C 6.3333333,18.5 5.3623629,19.408087 4.9277344,20.277344 4.4931059,21.146601 4.5,22 4.5,22 l 0,16 c 0,0 -0.00689,0.396601 -0.1972656,0.777344 C 4.1123629,39.158087 3.8333333,39.5 3,39.5 l 0,0.5 0,0.5 38,0 c 1.166667,0 1.887637,-0.658087 2.197266,-1.277344 C 43.506894,38.603399 43.5,38 43.5,38 l 0,-19 c 0,0 0.0069,-0.853399 -0.427734,-1.722656 C 42.637637,16.408087 41.666667,15.5 40,15.5 Z"/><path id="path17808" d="m 2,36 c 2,0 2,-2 2,-2 L 4,18 c 0,0 0,-3 3,-3 l 13,0 c 3,0 3,-3 6,-3 l 13,0 c 3,0 3,3 3,3 l 0,19 c 0,0 0,2 -2,2 z" clip-path="url(#clipPath8203)" transform="translate(1,4)" style="opacity:.5;fill:none;fill-opacity:1;fill-rule:evenodd;stroke:url(#linearGradient18112);stroke-width:2;stroke-linecap:butt;stroke-linejoin:round;stroke-miterlimit:4;stroke-dasharray:none;stroke-opacity:1"/></g><g id="g8188" transform="translate(2.5e-7,0.25)"><g id="g8223" transform="translate(0,2)"><g id="g3241" transform="translate(24,21.75)"><path id="path8836" d="m 24,21 c 0,1.656854 -5.372583,3 -12,3 C 5.3725827,24 -2.5e-7,22.656854 -2.5e-7,21 -2.5e-7,19.343146 5.3725827,18 12,18 c 6.627417,0 12,1.343146 12,3 l 0,0 z" style="display:inline;overflow:visible;visibility:visible;opacity:.3;fill:url(#radialGradient3090-5);fill-opacity:1;fill-rule:evenodd;stroke:none;stroke-width:.99999988;marker:none"/><path id="path2555" d="M 12.000002,1.5 C 6.206464,1.5 1.5,6.206462 1.5,12 1.5,17.793538 6.206464,22.500003 12.000002,22.500001 17.793537,22.500001 22.500006,17.793538 22.5,12 22.5,6.206462 17.793537,1.5 12.000002,1.5 Z" style="color:#000;display:inline;overflow:visible;visibility:visible;fill:url(#radialGradient3100-5);fill-opacity:1;fill-rule:nonzero;stroke:none;stroke-width:1;marker:none;enable-background:accumulate"/><path id="path2555-6" d="M 12.000001,1.5 C 6.206463,1.5 1.5,6.206461 1.5,12 1.5,17.793538 6.206463,22.500002 12.000001,22.5 17.793537,22.5 22.500005,17.793538 22.5,12 22.5,6.206461 17.793537,1.5 12.000001,1.5 Z" style="color:#000;display:inline;overflow:visible;visibility:visible;opacity:.5;fill:#000;fill-opacity:0;fill-rule:nonzero;stroke:#982d00;stroke-width:.99999994;stroke-linecap:round;stroke-linejoin:round;stroke-miterlimit:4;stroke-dasharray:none;stroke-dashoffset:0;stroke-opacity:1;marker:none;enable-background:accumulate"/><path id="path8655-6" d="M 21.5,11.999663 C 21.5,17.246537 17.246391,21.5 12.000121,21.5 6.7533684,21.5 2.5,17.246489 2.5,11.999663 c 0,-5.24663 4.2533684,-9.499662 9.500121,-9.499662 5.24627,0 9.499879,4.253032 9.499879,9.499662 l 0,0 z" style="color:#000;display:inline;overflow:visible;visibility:visible;opacity:.6;fill:none;stroke:url(#linearGradient3078);stroke-width:.99999988;stroke-linecap:round;stroke-linejoin:round;stroke-miterlimit:4;stroke-dasharray:none;stroke-dashoffset:0;stroke-opacity:1;marker:none;enable-background:accumulate"/></g></g></g><path style="opacity:.15;fill:#000;fill-opacity:1;fill-rule:evenodd;stroke:none;stroke-width:1px;stroke-linecap:butt;stroke-linejoin:miter;stroke-opacity:1" id="path8397" d="m 36,29 c -4.418278,0 -8,3.581722 -8,8 0,4.418278 3.581722,8 8,8 4.418278,0 8,-3.581722 8,-8 0,-4.418278 -3.581722,-8 -8,-8 z m 0,1 c 3.865993,0 7,3.134007 7,7 0,3.865993 -3.134007,7 -7,7 -3.865993,0 -7,-3.134007 -7,-7 0,-3.865993 3.134007,-7 7,-7 z m -2,3 0,4 -2.5,0 4.5,5 4.5,-5 -2.5,0 0,-4 z"/><path id="path18454" d="m 36,28 c -4.418278,0 -8,3.581722 -8,8 0,4.418278 3.581722,8 8,8 4.418278,0 8,-3.581722 8,-8 0,-4.418278 -3.581722,-8 -8,-8 z m 0,1 c 3.865993,0 7,3.134007 7,7 0,3.865993 -3.134007,7 -7,7 -3.865993,0 -7,-3.134007 -7,-7 0,-3.865993 3.134007,-7 7,-7 z m -2,3 0,4 -2.5,0 4.5,5 4.5,-5 -2.5,0 0,-4 z" style="fill:#fff;fill-opacity:1;fill-rule:evenodd;stroke:none;stroke-width:1px;stroke-linecap:butt;stroke-linejoin:miter;stroke-opacity:1"/></g></svg>