<svg xmlns="http://www.w3.org/2000/svg" xmlns:svg="http://www.w3.org/2000/svg" xmlns:xlink="http://www.w3.org/1999/xlink" id="svg12664" width="48" height="48" version="1.1" viewBox="0 0 48 48"><defs id="defs12666"><linearGradient id="linearGradient8590"><stop style="stop-color:#000;stop-opacity:1" id="stop8592" offset="0"/><stop style="stop-color:#000;stop-opacity:.65991902" id="stop8594" offset="1"/></linearGradient><linearGradient id="linearGradient17818"><stop style="stop-color:#fff;stop-opacity:1" id="stop17820" offset="0"/><stop id="stop8356" offset=".115" style="stop-color:#fff;stop-opacity:.30769232"/><stop id="stop8354" offset=".928" style="stop-color:#fff;stop-opacity:.34817815"/><stop style="stop-color:#fff;stop-opacity:1" id="stop17822" offset="1"/></linearGradient><linearGradient id="XMLID_18_" x1="35.979" x2="68.929" y1="15.023" y2="107.283" gradientTransform="translate(-134.625,-43.05)" gradientUnits="userSpaceOnUse"><stop style="stop-color:#fff" id="stop32" offset="0"/><stop style="stop-color:#f4f4f4" id="stop34" offset=".219"/><stop style="stop-color:#d8d8d8" id="stop36" offset=".601"/><stop style="stop-color:#b3b3b3" id="stop38" offset="1"/></linearGradient><radialGradient id="XMLID_21_" cx="79.615" cy="116.734" r="88.042" gradientTransform="translate(-134.625,-43.05)" gradientUnits="userSpaceOnUse"><stop style="stop-color:#ffdd70" id="stop61" offset="0"/><stop style="stop-color:#ffab43" id="stop63" offset=".422"/><stop style="stop-color:#ff841f" id="stop65" offset=".802"/><stop style="stop-color:#ff7512" id="stop67" offset="1"/></radialGradient><radialGradient id="XMLID_22_" cx="126.5" cy="130.198" r="82.374" gradientTransform="translate(-194.625,-43.05)" gradientUnits="userSpaceOnUse"><stop style="stop-color:#f3a848;stop-opacity:1" id="stop72" offset="0"/><stop style="stop-color:#fc8723" id="stop76" offset=".754"/><stop style="stop-color:#f4802a;stop-opacity:1" id="stop78" offset="1"/></radialGradient><clipPath id="clipPath17812" clipPathUnits="userSpaceOnUse"><path id="path17814" d="m 2,36 c 2,0 2,-2 2,-2 L 4,21 c 0,0 0,-3 3,-3 l 13,0 c 3,0 3,-3 6,-3 l 13,0 c 3,0 3,3 3,3 l 0,16 c 0,0 0,2 -2,2 z" style="fill:url(#radialGradient17816);fill-opacity:1;fill-rule:evenodd;stroke:none;stroke-width:1px;stroke-linecap:butt;stroke-linejoin:miter;stroke-opacity:1"/></clipPath><radialGradient id="radialGradient17816" cx="32" cy="55.341" r="20" fx="32" fy="55.341" gradientTransform="matrix(2.2,8.9007e-8,-8.091545e-8,1.9999999,-38.399996,-66.682539)" gradientUnits="userSpaceOnUse" xlink:href="#XMLID_21_"/><clipPath id="clipPath18098" clipPathUnits="userSpaceOnUse"><path style="fill:url(#linearGradient18102);fill-opacity:1;fill-rule:evenodd;stroke:none;stroke-width:1px;stroke-linecap:butt;stroke-linejoin:miter;stroke-opacity:1" id="path18100" d="m 37,36 c 2,0 2,-2 2,-2 l 0,-21 c 0,0 0,-3 -3,-3 L 24,10 C 21,10 21,7 18,7 L 5,7 C 2,7 2,10 2,10 l 0,24 c 0,0 0,2 2,2 z"/></clipPath><linearGradient id="linearGradient18102" x1="16" x2="40" y1="2" y2="46" gradientTransform="translate(0,2)" gradientUnits="userSpaceOnUse" xlink:href="#XMLID_18_"/><linearGradient id="linearGradient12467" x1="302.857" x2="302.857" y1="366.648" y2="609.505" gradientTransform="matrix(0.07938856,0,0,0.02470588,-4.6932967,31.94164)" gradientUnits="userSpaceOnUse" xlink:href="#linearGradient5048-585-73-1-5"/><linearGradient id="linearGradient5048-585-73-1-5"><stop id="stop2667-99-4-6" offset="0" style="stop-color:#000;stop-opacity:0"/><stop id="stop2669-5-9-4" offset=".5" style="stop-color:#000;stop-opacity:1"/><stop id="stop2671-56-4-2" offset="1" style="stop-color:#000;stop-opacity:0"/></linearGradient><radialGradient id="radialGradient12471" cx="605.714" cy="486.648" r="117.143" fx="605.714" fy="486.648" gradientTransform="matrix(0.03079083,0,0,0.02470588,22.61025,31.94164)" gradientUnits="userSpaceOnUse" xlink:href="#linearGradient5060-179-37-4-0"/><linearGradient id="linearGradient5060-179-37-4-0"><stop id="stop2675-91-9-2" offset="0" style="stop-color:#000;stop-opacity:1"/><stop id="stop2677-09-0-9" offset="1" style="stop-color:#000;stop-opacity:0"/></linearGradient><radialGradient id="radialGradient12475" cx="605.714" cy="486.648" r="117.143" fx="605.714" fy="486.648" gradientTransform="matrix(-0.03079083,0,0,0.02470588,25.38975,31.94164)" gradientUnits="userSpaceOnUse" xlink:href="#linearGradient5060-179-37-4-0"/><linearGradient id="linearGradient18305" x1="302.857" x2="302.857" y1="366.648" y2="609.505" gradientTransform="matrix(0.0529257,0,0,0.01647059,-0.7955263,35.961094)" gradientUnits="userSpaceOnUse" xlink:href="#linearGradient5048-585-73-1-5"/><radialGradient id="radialGradient18307" cx="605.714" cy="486.648" r="117.143" fx="605.714" fy="486.648" gradientTransform="matrix(0.02052722,0,0,0.01647059,27.740165,35.961127)" gradientUnits="userSpaceOnUse" xlink:href="#linearGradient5060-179-37-4-0"/><radialGradient id="radialGradient18309" cx="605.714" cy="486.648" r="117.143" fx="605.714" fy="486.648" gradientTransform="matrix(-0.02052722,0,0,0.01647059,19.926499,35.961127)" gradientUnits="userSpaceOnUse" xlink:href="#linearGradient5060-179-37-4-0"/><linearGradient id="linearGradient1065"><stop style="stop-color:#b5c051;stop-opacity:1" id="stop1066" offset="0"/><stop style="stop-color:#858e3f;stop-opacity:1" id="stop1067" offset="1"/></linearGradient><linearGradient id="linearGradient172"><stop id="stop173" offset="0" style="stop-color:#616c08;stop-opacity:1"/><stop id="stop174" offset="1" style="stop-color:#495106;stop-opacity:1"/></linearGradient><linearGradient id="linearGradient1872" x1="-4.638" x2="-4.524" y1="104.388" y2="110.614" gradientTransform="matrix(1.4963662,0,0,0.48964303,30.730978,-35.556477)" gradientUnits="userSpaceOnUse" xlink:href="#linearGradient1869"/><linearGradient id="linearGradient1869"><stop style="stop-color:#eff3f4;stop-opacity:1" id="stop1870" offset="0"/><stop style="stop-color:#939596;stop-opacity:1" id="stop1871" offset="1"/></linearGradient><linearGradient id="linearGradient161"><stop id="stop162" offset="0" style="stop-color:#575955;stop-opacity:1"/><stop id="stop163" offset="1" style="stop-color:#7c7e79;stop-opacity:1"/></linearGradient><linearGradient id="linearGradient157"><stop id="stop158" offset="0" style="stop-color:#babdb6;stop-opacity:1"/><stop id="stop159" offset="1" style="stop-color:#f1f5ec;stop-opacity:1"/></linearGradient><linearGradient id="linearGradient8352" x1="24" x2="24" y1="19.542" y2="44.542" gradientUnits="userSpaceOnUse" xlink:href="#linearGradient17818"/><radialGradient id="radialGradient8380" cx="33" cy="44.767" r="20.011" fx="33" fy="44.767" gradientTransform="matrix(1.6991013,1.6075628e-7,-1.4657191e-7,1.5491806,-23.070337,-30.35147)" gradientUnits="userSpaceOnUse" xlink:href="#XMLID_22_"/><clipPath id="clipPath8383" clipPathUnits="userSpaceOnUse"><path style="fill:#000;fill-opacity:1;fill-rule:evenodd;stroke:none;stroke-width:1;stroke-linecap:butt;stroke-linejoin:miter;stroke-miterlimit:4;stroke-dasharray:none;stroke-opacity:.57085021" id="path8385" d="m 4.5605469,18.599609 c 0.07004,1.022149 1.7123966,22.990467 1.7128906,22.998047 0.077424,1.188744 0.4295681,1.925785 0.8886719,2.375 0.4591037,0.449216 1.0550318,0.642849 1.7363281,0.644532 -0.046794,-1.1e-4 0.4676771,8.4e-5 1.2734375,0 0.80576,-8.6e-5 1.955125,1.68e-4 3.333984,0 2.757719,-4.01e-4 6.434929,-0.0014 10.13086,-0.002 7.391861,-0.0012 14.88699,-0.0027 15.164062,-0.0039 1.211599,-0.0052 1.844445,-0.35079 2.257813,-0.859375 0.413367,-0.508584 0.611289,-1.255807 0.693359,-2.097656 l 0,-0.0039 c -6e-5,6e-4 -4.4e-4,-0.0025 0,-0.0078 9e-4,-0.01062 0.0021,-0.03061 0.0039,-0.05469 0.0037,-0.04817 0.0088,-0.118771 0.01563,-0.212891 0.01368,-0.188234 0.03372,-0.464041 0.05859,-0.814453 0.04973,-0.700825 0.121028,-1.701671 0.205078,-2.900391 0.168094,-2.397439 0.390301,-5.591309 0.613282,-8.785156 0.222979,-3.193847 0.447122,-6.387454 0.615234,-8.785156 0.08406,-1.198851 0.153355,-0.19899 0.203125,-0.900391 0.01745,-0.245824 0.02892,-0.403934 0.04102,-0.572265 z"/></clipPath><linearGradient id="linearGradient8596" x1="23" x2="23" y1="17" y2="8" gradientTransform="translate(0,-2)" gradientUnits="userSpaceOnUse" xlink:href="#linearGradient8590"/><radialGradient id="radialGradient17543" cx="27.646" cy="62.325" r="19" fx="27.646" fy="62.325" gradientTransform="matrix(2.5263158,-2.0415251e-7,1.8713982e-7,2.3157897,-47.829598,-126.31379)" gradientUnits="userSpaceOnUse" xlink:href="#linearGradient17537"/><linearGradient id="linearGradient17537"><stop style="stop-color:#fff;stop-opacity:.6" id="stop17539" offset="0"/><stop style="stop-color:#fff;stop-opacity:0" id="stop17541" offset="1"/></linearGradient></defs><metadata id="metadata12669"/><g id="layer1"><path style="display:inline;overflow:visible;visibility:visible;opacity:.08999999;fill:url(#linearGradient12467);fill-opacity:1;fill-rule:nonzero;stroke:none;stroke-width:1;marker:none" id="rect4173-8-8" d="m 6.833334,41 34.333332,0 0,6 -34.333332,0 z"/><path style="display:inline;overflow:visible;visibility:visible;opacity:.3;fill:url(#linearGradient18305);fill-opacity:1;fill-rule:nonzero;stroke:none;stroke-width:1;marker:none" id="rect18299" d="m 7.5555601,42 32.5555539,0 0,4 -32.5555539,0 z"/><path id="path18301" d="m 40.111111,42.000173 c 0,0 0,3.99978 0,3.99978 1.0571,0.0075 2.555553,-0.896147 2.555553,-2.000147 0,-1.104 -1.179647,-1.999633 -2.555553,-1.999633 z" style="display:inline;overflow:visible;visibility:visible;opacity:.3;fill:url(#radialGradient18307);fill-opacity:1;fill-rule:nonzero;stroke:none;stroke-width:1;marker:none"/><path id="path18303" d="m 7.5555531,42.000173 c 0,0 0,3.99978 0,3.99978 C 6.4984532,46.007486 5,45.103806 5,43.999806 c 0,-1.104 1.1796466,-1.999633 2.5555531,-1.999633 z" style="display:inline;overflow:visible;visibility:visible;opacity:.3;fill:url(#radialGradient18309);fill-opacity:1;fill-rule:nonzero;stroke:none;stroke-width:1;marker:none"/><path style="display:inline;overflow:visible;visibility:visible;opacity:.08999999;fill:url(#radialGradient12471);fill-opacity:1;fill-rule:nonzero;stroke:none;stroke-width:1;marker:none" id="path5058-9-0" d="m 41.16667,41.00021 c 0,0 0,5.99967 0,5.99967 C 42.75232,47.01118 45,45.65566 45,43.99966 c 0,-1.656 -1.76947,-2.99945 -3.83333,-2.99945 z"/><path style="display:inline;overflow:visible;visibility:visible;opacity:.08999999;fill:url(#radialGradient12475);fill-opacity:1;fill-rule:nonzero;stroke:none;stroke-width:1;marker:none" id="path5018-6-6" d="m 6.83333,41.00021 c 0,0 0,5.99967 0,5.99967 C 5.24768,47.01118 3,45.65566 3,43.99966 c 0,-1.656 1.76947,-2.99945 3.83333,-2.99945 z"/><path style="fill:url(#radialGradient8380);fill-opacity:1;fill-rule:evenodd;stroke:none;stroke-width:1;stroke-linecap:butt;stroke-linejoin:miter;stroke-miterlimit:4;stroke-dasharray:none;stroke-opacity:.57085021" id="path1751" d="m 5.7747373,40.089189 c 0.1661293,2.550698 1.5607136,3.482935 3.1216556,3.486733 0.055778,1.3e-4 29.2840441,-0.0032 29.9067541,-0.006 2.628697,-0.01121 3.2727,-1.634583 3.445623,-3.408279 0.01387,-0.03497 1.783848,-23.550776 1.797715,-23.585748 L 4.0253277,16.558216 c 0,0 1.7489051,23.52323 1.7494096,23.530973 z"/><path style="opacity:.5;fill:url(#radialGradient17543);fill-opacity:1;fill-rule:evenodd;stroke:none;stroke-width:1px;stroke-linecap:butt;stroke-linejoin:miter;stroke-opacity:1" id="path17530" d="M 5.4660024,30.79883 C 15.032926,27.828457 25.214193,26.273907 36.012,26.26758 c 2.338399,0.003 4.449135,0.07862 6.774205,0.226563 L 43.272401,18.727599 4.5459976,18.545998 Z"/><path id="path8338" d="m 4.5605469,18.599609 c 0.07004,1.022149 1.7123966,22.990467 1.7128906,22.998047 0.077424,1.188744 0.4295681,1.925785 0.8886719,2.375 0.4591037,0.449216 1.0550318,0.642849 1.7363281,0.644532 -0.046794,-1.1e-4 0.4676771,8.4e-5 1.2734375,0 0.80576,-8.6e-5 1.955125,1.68e-4 3.333984,0 2.757719,-4.01e-4 6.434929,-0.0014 10.13086,-0.002 7.391861,-0.0012 14.88699,-0.0027 15.164062,-0.0039 1.211599,-0.0052 1.844445,-0.35079 2.257813,-0.859375 0.413367,-0.508584 0.611289,-1.255807 0.693359,-2.097656 l 0,-0.0039 c -6e-5,6e-4 -4.4e-4,-0.0025 0,-0.0078 9e-4,-0.01062 0.0021,-0.03061 0.0039,-0.05469 0.0037,-0.04817 0.0088,-0.118771 0.01563,-0.212891 0.01368,-0.188234 0.03372,-0.464041 0.05859,-0.814453 0.04973,-0.700825 0.121028,-1.701671 0.205078,-2.900391 0.168094,-2.397439 0.390301,-5.591309 0.613282,-8.785156 0.222979,-3.193847 0.447122,-6.387454 0.615234,-8.785156 0.08406,-1.198851 0.153355,-0.19899 0.203125,-0.900391 0.01745,-0.245824 0.02892,-0.403934 0.04102,-0.572265 z" clip-path="url(#clipPath8383)" transform="translate(0,-1.5415536)" style="opacity:.8;fill:none;fill-opacity:1;fill-rule:evenodd;stroke:url(#linearGradient8352);stroke-width:2;stroke-linecap:butt;stroke-linejoin:miter;stroke-miterlimit:4;stroke-dasharray:none;stroke-opacity:.57085021"/><path id="path8362" d="m 5.7747373,40.089189 c 0.1661293,2.550698 1.5607136,3.482935 3.1216556,3.486733 0.055778,1.3e-4 29.2840441,-0.0032 29.9067541,-0.006 2.628697,-0.01121 3.2727,-1.634583 3.445623,-3.408279 0.01387,-0.03497 1.783848,-23.550776 1.797715,-23.585748 L 4.0253277,16.558216 c 0,0 1.7489051,23.52323 1.7494096,23.530973 z" style="fill:none;fill-opacity:1;fill-rule:evenodd;stroke:#7a2f00;stroke-width:1;stroke-linecap:butt;stroke-linejoin:miter;stroke-miterlimit:4;stroke-dasharray:none;stroke-opacity:.57085021"/><path style="fill:url(#linearGradient1872);fill-opacity:1;fill-rule:evenodd;stroke:#000;stroke-width:1;stroke-linecap:butt;stroke-linejoin:miter;stroke-miterlimit:4;stroke-dasharray:none;stroke-opacity:.34817816" id="path1841" d="m 7.2097355,4.644686 c -1.0667623,0.0024 -1.9595586,0.02711 -2.445858,1.04283 -0.084523,0.176541 -2.7022857,9.326399 -2.7847816,9.614844 -0.6184669,2.162453 -0.082495,3.285922 1.9656538,3.266193 0.3895076,-0.0036 40.3590993,0.01827 40.9788973,0 1.743492,-0.0505 1.966602,-1.462731 1.21604,-2.997739 C 46.097167,15.483854 42.613726,5.589871 42.524883,5.450051 42.113966,4.825609 41.193755,4.55194 40.510211,4.577572 40.375558,4.582772 7.3430015,4.644382 7.2097355,4.644686 Z"/><path style="color:#000;display:block;visibility:visible;opacity:.3;fill:url(#linearGradient8596);fill-opacity:1;fill-rule:evenodd;stroke:none;stroke-width:0;stroke-linecap:butt;stroke-linejoin:miter;stroke-miterlimit:4;stroke-dashoffset:0;stroke-opacity:1;marker:none;marker-start:none;marker-mid:none;marker-end:none" id="path1864" d="M 40.280123,5.9057056 C 37.966132,5.9107946 7.8595805,5.9949897 7.1440334,5.9952966 L 7.4297314,14.9931 c 4.2758076,-0.0037 26.4704106,0.02214 32.5576666,0.02288 z"/><path style="color:#000;display:block;visibility:visible;opacity:.5;fill:#000;fill-opacity:1;fill-rule:evenodd;stroke:none;stroke-width:0;stroke-linecap:butt;stroke-linejoin:miter;stroke-miterlimit:4;stroke-dashoffset:0;stroke-opacity:1;marker:none;marker-start:none;marker-mid:none;marker-end:none" id="path1880" d="m 7.1440334,5.9952966 c -0.3729467,0.02913 -0.5523282,0.142191 -0.7084283,0.644292 -0.051466,0.16554 -1.68078,7.0267864 -1.7620595,7.2796924 -0.2764145,0.860078 0.090273,1.091302 1.0495251,1.073819 0.016615,-3e-4 1.5223026,2.49e-4 1.7066607,0 z"/><path style="color:#000;display:block;visibility:visible;opacity:.4;fill:#000;fill-opacity:1;fill-rule:evenodd;stroke:none;stroke-width:0;stroke-linecap:butt;stroke-linejoin:miter;stroke-miterlimit:4;stroke-dashoffset:0;stroke-opacity:1;marker:none;marker-start:none;marker-mid:none;marker-end:none" id="path1888" d="m 40.280123,5.9057056 c 0.453274,0.004 0.586379,-0.0053 0.876151,0.555097 0.03963,0.07664 2.360124,7.3428074 2.462482,7.5957124 0.348104,0.974442 -0.314879,0.954068 -1.366426,0.982332 -0.199768,-3.02e-4 -2.032762,-0.02262 -2.264932,-0.02287 z"/><g id="g8403" transform="translate(0,-3)"><rect id="rect8399" width="40" height="1" x="4" y="21" ry="0" style="color:#000;clip-rule:nonzero;display:inline;overflow:visible;visibility:visible;opacity:.2;isolation:auto;mix-blend-mode:normal;color-interpolation:sRGB;color-interpolation-filters:linearRGB;solid-color:#000;solid-opacity:1;fill:#000;fill-opacity:1;fill-rule:evenodd;stroke:none;stroke-width:2;stroke-linecap:round;stroke-linejoin:round;stroke-miterlimit:4;stroke-dasharray:none;stroke-dashoffset:0;stroke-opacity:.34817816;color-rendering:auto;image-rendering:auto;shape-rendering:auto;text-rendering:auto;enable-background:accumulate"/><rect style="color:#000;clip-rule:nonzero;display:inline;overflow:visible;visibility:visible;opacity:.1;isolation:auto;mix-blend-mode:normal;color-interpolation:sRGB;color-interpolation-filters:linearRGB;solid-color:#000;solid-opacity:1;fill:#000;fill-opacity:1;fill-rule:evenodd;stroke:none;stroke-width:2;stroke-linecap:round;stroke-linejoin:round;stroke-miterlimit:4;stroke-dasharray:none;stroke-dashoffset:0;stroke-opacity:.34817816;color-rendering:auto;image-rendering:auto;shape-rendering:auto;text-rendering:auto;enable-background:accumulate" id="rect8401" width="40" height="1" x="4" y="22" ry="0"/></g><path style="display:inline;fill:#fff;fill-opacity:1;stroke:none;enable-background:new" id="path5998" d="m 20.59375,24 -1.21875,2.09375 3.46875,2 L 25.1875,24 Z m 5.1875,0 -1.75,3.03125 1.125,1.90625 -0.84375,0.5 4.09375,1.125 1.09375,-4.125 -0.875,0.5 L 26.90625,24 Z m -5.1875,3.9375 -4.09375,1.125 0.875,0.5 -1.5,2.53125 0.8125,1.40625 3.03125,0 1.125,-1.9375 0.84375,0.5 z m 10.03125,2.46875 -3.46875,2 2.125,3.78125 0.3125,-0.53125 L 30.3125,34.375 30.53125,34 31.625,32.09375 Z M 24.75,33 l -3,3 3,3 0,-1 3.5,0 0.78125,-1.34375 L 27.5,34 24.75,34 Z M 16.96875,34 17.25,34.5 18.1875,36.15625 19.25,38 21,38 21,34 Z"/><path style="opacity:.8;fill:none;fill-rule:evenodd;stroke:#fff;stroke-width:1px;stroke-linecap:round;stroke-linejoin:miter;stroke-opacity:1" id="path8584" d="m 5,15.5 38,0"/><path id="path8586" d="m 5,14.5 38,0" style="opacity:.2;fill:none;fill-rule:evenodd;stroke:#000;stroke-width:1px;stroke-linecap:round;stroke-linejoin:miter;stroke-opacity:1"/><path style="opacity:.1;fill:none;fill-rule:evenodd;stroke:#000;stroke-width:1px;stroke-linecap:square;stroke-linejoin:miter;stroke-opacity:1" id="path8588" d="M 7.5625,6.5 40,6.5"/></g></svg>